<svg width="22" height="21" viewBox="0 0 22 21" fill="none" xmlns="http://www.w3.org/2000/svg">
<path id="Vector" d="M21.9248 21H0.00400064C0.00400064 20.5557 0.00400064 20.1674 0.00400064 19.7791C0.0079571 13.5403 0.0297177 7.3036 4.41719e-05 1.06486C-0.00391229 0.218219 0.257214 -0.00395017 1.06631 5.28648e-05C7.69339 0.0260726 14.3205 0.0180665 20.9476 0.00605742C21.5747 0.00605742 22.0039 0.0380818 22 0.882723C21.9782 7.42169 21.994 13.9587 21.996 20.4976C21.996 20.6277 21.9604 20.7598 21.9268 21H21.9248ZM6.59943 15.0915C5.71318 14.5251 4.82693 13.9587 3.79627 13.3022C3.69341 14.7833 3.62812 16.0382 3.51141 17.2892C3.4481 17.9657 3.73099 18.2239 4.36007 18.358C7.00101 18.9164 9.63404 19.5229 12.273 20.0973C12.459 20.1373 12.6686 20.0673 13.0702 20.0273C10.8922 18.394 8.89022 16.8929 6.89023 15.3937C7.27401 15.5739 7.67955 15.718 8.03761 15.9402C9.96638 17.1431 11.8833 18.366 13.8081 19.5749C14.0534 19.729 14.3284 19.8311 14.5895 19.9552C14.6311 19.8892 14.6726 19.8231 14.7141 19.7571C12.0712 16.4606 9.43028 13.164 6.78736 9.86755C6.68845 9.90157 6.58756 9.9356 6.48865 9.96762C6.43524 11.5408 6.37391 13.114 6.34028 14.6892C6.3383 14.8213 6.50843 14.9574 6.59745 15.0915H6.59943ZM9.81208 6.63309C9.73493 6.6451 9.65976 6.65711 9.58261 6.66712C9.53908 6.94132 9.4738 7.21353 9.45798 7.48774C9.38478 8.85077 9.36896 10.2178 9.24631 11.5748C9.17905 12.3114 9.39863 12.8458 9.89517 13.3522C11.8615 15.3617 13.8081 17.3933 15.7685 19.4108C15.9505 19.5989 16.1761 19.745 16.3798 19.9092C16.4372 19.8551 16.4946 19.8011 16.5519 19.747C14.3046 15.3737 12.0574 11.0024 9.8101 6.62909L9.81208 6.63309ZM21.086 19.4889C21.1948 19.4608 21.3036 19.4328 21.4124 19.4048C20.3739 13.2321 19.3333 7.05941 18.2947 0.886726C18.1721 0.886726 18.0494 0.888728 17.9268 0.890729C17.7131 2.35184 17.5489 3.82496 17.272 5.27406C16.995 6.71315 17.0465 8.06217 17.5766 9.46524C18.5895 12.1393 19.456 14.8713 20.3877 17.5774C20.6093 18.2199 20.8526 18.8524 21.088 19.4889H21.086ZM12.5262 3.67284C12.4135 3.68685 12.3007 3.70086 12.1879 3.71487C12.1147 5.49623 12.0099 7.27758 11.9881 9.05893C11.9822 9.55931 12.1286 10.1177 12.3719 10.5541C13.9585 13.3942 15.5885 16.2084 17.2087 19.0265C17.365 19.2967 17.5569 19.5469 17.7329 19.8051L17.9683 19.693C16.1543 14.353 14.3403 9.0129 12.5262 3.67284ZM18.8862 19.675C18.9911 19.645 19.0959 19.6149 19.1988 19.5849C17.8477 13.5123 16.4985 7.4397 15.1474 1.36509C15.0089 1.3791 14.8724 1.39311 14.7339 1.40712C14.7339 1.98356 14.7794 2.566 14.726 3.13844C14.4115 6.57505 14.8229 9.85354 16.3244 13.0219C17.3373 15.1616 18.0435 17.4533 18.8862 19.675ZM0.615275 20.4556H11.4164C11.1355 20.2554 10.8131 20.1333 10.4807 20.0573C7.94858 19.4828 5.41051 18.9284 2.88035 18.348C0.854641 17.8836 0.720121 17.9837 0.615275 20.4556Z" fill="#E7B51E"/>
</svg>
