<svg width="24" height="25" viewBox="0 0 24 25" fill="none" xmlns="http://www.w3.org/2000/svg">
<path id="Vector" d="M23.9407 13.6765L20.1266 4.41176H21.8798C22.067 4.41176 22.2465 4.3343 22.3789 4.1964C22.5112 4.05851 22.5856 3.87148 22.5856 3.67647C22.5856 3.48146 22.5112 3.29443 22.3789 3.15654C22.2465 3.01864 22.067 2.94118 21.8798 2.94118H12.7044V0.735294C12.7044 0.540282 12.63 0.353257 12.4977 0.215363C12.3653 0.0774684 12.1858 0 11.9986 0C11.8114 0 11.6319 0.0774684 11.4995 0.215363C11.3671 0.353257 11.2928 0.540282 11.2928 0.735294V2.94118H2.1174C1.93021 2.94118 1.75069 3.01864 1.61832 3.15654C1.48596 3.29443 1.4116 3.48146 1.4116 3.67647C1.4116 3.87148 1.48596 4.05851 1.61832 4.1964C1.75069 4.3343 1.93021 4.41176 2.1174 4.41176H3.8706L0.0592869 13.6765C0.0508173 13.7 0.00282299 13.9426 0.00282299 13.9706H0C1.95254e-08 15.3357 0.520526 16.6448 1.44707 17.6101C2.37361 18.5754 3.63027 19.1176 4.9406 19.1176C6.25092 19.1176 7.50758 18.5754 8.43412 17.6101C9.36066 16.6448 9.88119 15.3357 9.88119 13.9706C9.88119 13.95 9.8332 13.7074 9.82473 13.6765L6.01059 4.41176H11.2928V23.5294H9.17539C8.9882 23.5294 8.80868 23.6069 8.67631 23.7448C8.54395 23.8827 8.46959 24.0697 8.46959 24.2647C8.46959 24.4597 8.54395 24.6467 8.67631 24.7846C8.80868 24.9225 8.9882 25 9.17539 25H14.8218C15.009 25 15.1885 24.9225 15.3209 24.7846C15.4532 24.6467 15.5276 24.4597 15.5276 24.2647C15.5276 24.0697 15.4532 23.8827 15.3209 23.7448C15.1885 23.6069 15.009 23.5294 14.8218 23.5294H12.7044V4.41176H17.9866L14.1753 13.6765C14.1668 13.7 14.1188 13.9426 14.1188 13.9706C14.1188 15.3357 14.6393 16.6448 15.5659 17.6101C16.4924 18.5754 17.7491 19.1176 19.0594 19.1176C20.3697 19.1176 21.6264 18.5754 22.5529 17.6101C23.4795 16.6448 24 15.3357 24 13.9706C23.9972 13.9485 23.9492 13.7059 23.9407 13.6765ZM4.9406 5.54412L8.1054 13.2353H1.77579L4.9406 5.54412ZM4.9406 17.6471C4.12705 17.6472 3.33844 17.3546 2.70822 16.8186C2.078 16.2826 1.64489 15.5363 1.48218 14.7059H8.39901C8.2363 15.5363 7.80319 16.2826 7.17297 16.8186C6.54275 17.3546 5.75414 17.6472 4.9406 17.6471ZM22.2214 13.2353H15.8918L19.0566 5.54412L22.2214 13.2353ZM19.0566 17.6471C18.243 17.6472 17.4544 17.3546 16.8242 16.8186C16.194 16.2826 15.7609 15.5363 15.5982 14.7059H22.515C22.3523 15.5363 21.9192 16.2826 21.289 16.8186C20.6587 17.3546 19.8701 17.6472 19.0566 17.6471Z" fill="#E7B51E"/>
</svg>
