<svg width="22" height="22" viewBox="0 0 22 22" fill="none" xmlns="http://www.w3.org/2000/svg">
<g id="Group 16">
<g id="Documents and calculator">
<path id="Vector" d="M20.625 8.25H15.5833V4.58333H18.7917C18.9132 4.58333 19.0298 4.53504 19.1158 4.44909C19.2017 4.36314 19.25 4.24656 19.25 4.125V2.29167C19.25 1.68388 19.0086 1.10098 18.5788 0.671214C18.149 0.241443 17.5661 0 16.9583 0L2.29167 0C1.68388 0 1.10098 0.241443 0.671214 0.671214C0.241443 1.10098 0 1.68388 0 2.29167L0 19.7083C0 19.8299 0.0482886 19.9465 0.134243 20.0324C0.220197 20.1184 0.336776 20.1667 0.458333 20.1667H11V20.625C11 20.9897 11.1449 21.3394 11.4027 21.5973C11.6606 21.8551 12.0103 22 12.375 22H20.625C20.9897 22 21.3394 21.8551 21.5973 21.5973C21.8551 21.3394 22 20.9897 22 20.625V9.625C22 9.26033 21.8551 8.91059 21.5973 8.65273C21.3394 8.39487 20.9897 8.25 20.625 8.25ZM18.3333 2.29167V3.66667H15.5833V2.29167C15.5833 1.92699 15.7282 1.57726 15.9861 1.31939C16.2439 1.06153 16.5937 0.916667 16.9583 0.916667C17.323 0.916667 17.6727 1.06153 17.9306 1.31939C18.1885 1.57726 18.3333 1.92699 18.3333 2.29167ZM0.916667 19.25V2.29167C0.916667 1.92699 1.06153 1.57726 1.31939 1.31939C1.57726 1.06153 1.92699 0.916667 2.29167 0.916667H15.125C14.5154 1.72333 14.6667 1.71875 14.6667 8.25H12.375C12.0103 8.25 11.6606 8.39487 11.4027 8.65273C11.1449 8.91059 11 9.26033 11 9.625V19.25H0.916667ZM21.0833 20.625C21.0833 20.7466 21.035 20.8631 20.9491 20.9491C20.8631 21.035 20.7466 21.0833 20.625 21.0833H12.375C12.2534 21.0833 12.1369 21.035 12.0509 20.9491C11.965 20.8631 11.9167 20.7466 11.9167 20.625V9.625C11.9167 9.50344 11.965 9.38686 12.0509 9.30091C12.1369 9.21496 12.2534 9.16667 12.375 9.16667H20.625C20.7466 9.16667 20.8631 9.21496 20.9491 9.30091C21.035 9.38686 21.0833 9.50344 21.0833 9.625V20.625Z" fill="#E7B51E"/>
<path id="Vector_2" d="M19.7083 10.0833H13.2916C13.1701 10.0833 13.0535 10.1316 12.9676 10.2176C12.8816 10.3035 12.8333 10.4201 12.8333 10.5416V14.2083C12.8333 14.3299 12.8816 14.4464 12.9676 14.5324C13.0535 14.6184 13.1701 14.6666 13.2916 14.6666H19.7083C19.8299 14.6666 19.9465 14.6184 20.0324 14.5324C20.1184 14.4464 20.1666 14.3299 20.1666 14.2083V10.5416C20.1666 10.4201 20.1184 10.3035 20.0324 10.2176C19.9465 10.1316 19.8299 10.0833 19.7083 10.0833ZM19.25 13.75H13.75V11H19.25V13.75Z" fill="#E7B51E"/>
<path id="Vector_3" d="M16.9583 15.5833H16.0416C15.9201 15.5833 15.8035 15.6316 15.7176 15.7176C15.6316 15.8035 15.5833 15.9201 15.5833 16.0416C15.5833 16.1632 15.6316 16.2798 15.7176 16.3657C15.8035 16.4517 15.9201 16.5 16.0416 16.5H16.9583C17.0799 16.5 17.1964 16.4517 17.2824 16.3657C17.3684 16.2798 17.4166 16.1632 17.4166 16.0416C17.4166 15.9201 17.3684 15.8035 17.2824 15.7176C17.1964 15.6316 17.0799 15.5833 16.9583 15.5833Z" fill="#E7B51E"/>
<path id="Vector_4" d="M14.2083 15.5833H13.2916C13.1701 15.5833 13.0535 15.6316 12.9676 15.7176C12.8816 15.8035 12.8333 15.9201 12.8333 16.0416C12.8333 16.1632 12.8816 16.2798 12.9676 16.3657C13.0535 16.4517 13.1701 16.5 13.2916 16.5H14.2083C14.3299 16.5 14.4464 16.4517 14.5324 16.3657C14.6184 16.2798 14.6666 16.1632 14.6666 16.0416C14.6666 15.9201 14.6184 15.8035 14.5324 15.7176C14.4464 15.6316 14.3299 15.5833 14.2083 15.5833Z" fill="#E7B51E"/>
<path id="Vector_5" d="M19.7083 15.5833H18.7916C18.6701 15.5833 18.5535 15.6316 18.4676 15.7176C18.3816 15.8035 18.3333 15.9201 18.3333 16.0416C18.3333 16.1632 18.3816 16.2798 18.4676 16.3657C18.5535 16.4517 18.6701 16.5 18.7916 16.5H19.7083C19.8299 16.5 19.9464 16.4517 20.0324 16.3657C20.1184 16.2798 20.1666 16.1632 20.1666 16.0416C20.1666 15.9201 20.1184 15.8035 20.0324 15.7176C19.9464 15.6316 19.8299 15.5833 19.7083 15.5833Z" fill="#E7B51E"/>
<path id="Vector_6" d="M16.9583 17.4167H16.0416C15.9201 17.4167 15.8035 17.465 15.7176 17.5509C15.6316 17.6369 15.5833 17.7535 15.5833 17.875C15.5833 17.9966 15.6316 18.1132 15.7176 18.1991C15.8035 18.2851 15.9201 18.3334 16.0416 18.3334H16.9583C17.0799 18.3334 17.1964 18.2851 17.2824 18.1991C17.3684 18.1132 17.4166 17.9966 17.4166 17.875C17.4166 17.7535 17.3684 17.6369 17.2824 17.5509C17.1964 17.465 17.0799 17.4167 16.9583 17.4167Z" fill="#E7B51E"/>
<path id="Vector_7" d="M14.2083 17.4167H13.2916C13.1701 17.4167 13.0535 17.465 12.9676 17.5509C12.8816 17.6369 12.8333 17.7535 12.8333 17.875C12.8333 17.9966 12.8816 18.1132 12.9676 18.1991C13.0535 18.2851 13.1701 18.3334 13.2916 18.3334H14.2083C14.3299 18.3334 14.4464 18.2851 14.5324 18.1991C14.6184 18.1132 14.6666 17.9966 14.6666 17.875C14.6666 17.7535 14.6184 17.6369 14.5324 17.5509C14.4464 17.465 14.3299 17.4167 14.2083 17.4167Z" fill="#E7B51E"/>
<path id="Vector_8" d="M19.7083 17.4167H18.7916C18.6701 17.4167 18.5535 17.465 18.4676 17.5509C18.3816 17.6369 18.3333 17.7535 18.3333 17.875C18.3333 17.9966 18.3816 18.1132 18.4676 18.1991C18.5535 18.2851 18.6701 18.3334 18.7916 18.3334H19.7083C19.8299 18.3334 19.9464 18.2851 20.0324 18.1991C20.1184 18.1132 20.1666 17.9966 20.1666 17.875C20.1666 17.7535 20.1184 17.6369 20.0324 17.5509C19.9464 17.465 19.8299 17.4167 19.7083 17.4167Z" fill="#E7B51E"/>
<path id="Vector_9" d="M16.9583 19.25H16.0416C15.9201 19.25 15.8035 19.2983 15.7176 19.3842C15.6316 19.4702 15.5833 19.5868 15.5833 19.7083C15.5833 19.8299 15.6316 19.9465 15.7176 20.0324C15.8035 20.1184 15.9201 20.1667 16.0416 20.1667H16.9583C17.0799 20.1667 17.1964 20.1184 17.2824 20.0324C17.3684 19.9465 17.4166 19.8299 17.4166 19.7083C17.4166 19.5868 17.3684 19.4702 17.2824 19.3842C17.1964 19.2983 17.0799 19.25 16.9583 19.25Z" fill="#E7B51E"/>
<path id="Vector_10" d="M14.2083 19.25H13.2916C13.1701 19.25 13.0535 19.2983 12.9676 19.3842C12.8816 19.4702 12.8333 19.5868 12.8333 19.7083C12.8333 19.8299 12.8816 19.9465 12.9676 20.0324C13.0535 20.1184 13.1701 20.1667 13.2916 20.1667H14.2083C14.3299 20.1667 14.4464 20.1184 14.5324 20.0324C14.6184 19.9465 14.6666 19.8299 14.6666 19.7083C14.6666 19.5868 14.6184 19.4702 14.5324 19.3842C14.4464 19.2983 14.3299 19.25 14.2083 19.25Z" fill="#E7B51E"/>
<path id="Vector_11" d="M19.7083 19.25H18.7916C18.6701 19.25 18.5535 19.2983 18.4676 19.3842C18.3816 19.4702 18.3333 19.5868 18.3333 19.7083C18.3333 19.8299 18.3816 19.9465 18.4676 20.0324C18.5535 20.1184 18.6701 20.1667 18.7916 20.1667H19.7083C19.8299 20.1667 19.9464 20.1184 20.0324 20.0324C20.1184 19.9465 20.1666 19.8299 20.1666 19.7083C20.1666 19.5868 20.1184 19.4702 20.0324 19.3842C19.9464 19.2983 19.8299 19.25 19.7083 19.25Z" fill="#E7B51E"/>
<path id="Vector_12" d="M9.625 8.70831H3.20833C3.08678 8.70831 2.9702 8.7566 2.88424 8.84256C2.79829 8.92851 2.75 9.04509 2.75 9.16665C2.75 9.2882 2.79829 9.40478 2.88424 9.49074C2.9702 9.57669 3.08678 9.62498 3.20833 9.62498H9.625C9.74656 9.62498 9.86314 9.57669 9.94909 9.49074C10.035 9.40478 10.0833 9.2882 10.0833 9.16665C10.0833 9.04509 10.035 8.92851 9.94909 8.84256C9.86314 8.7566 9.74656 8.70831 9.625 8.70831Z" fill="#E7B51E"/>
<path id="Vector_13" d="M9.625 13.2917H3.20833C3.08678 13.2917 2.9702 13.34 2.88424 13.4259C2.79829 13.5119 2.75 13.6285 2.75 13.75C2.75 13.8716 2.79829 13.9882 2.88424 14.0741C2.9702 14.1601 3.08678 14.2084 3.20833 14.2084H9.625C9.74656 14.2084 9.86314 14.1601 9.94909 14.0741C10.035 13.9882 10.0833 13.8716 10.0833 13.75C10.0833 13.6285 10.035 13.5119 9.94909 13.4259C9.86314 13.34 9.74656 13.2917 9.625 13.2917Z" fill="#E7B51E"/>
<path id="Vector_14" d="M3.20833 5.04167H12.375C12.4966 5.04167 12.6131 4.99338 12.6991 4.90742C12.785 4.82147 12.8333 4.70489 12.8333 4.58333C12.8333 4.46178 12.785 4.3452 12.6991 4.25924C12.6131 4.17329 12.4966 4.125 12.375 4.125H3.20833C3.08678 4.125 2.9702 4.17329 2.88424 4.25924C2.79829 4.3452 2.75 4.46178 2.75 4.58333C2.75 4.70489 2.79829 4.82147 2.88424 4.90742C2.9702 4.99338 3.08678 5.04167 3.20833 5.04167Z" fill="#E7B51E"/>
<path id="Vector_15" d="M3.20833 7.33335H12.375C12.4966 7.33335 12.6131 7.28507 12.6991 7.19911C12.785 7.11316 12.8333 6.99658 12.8333 6.87502C12.8333 6.75346 12.785 6.63688 12.6991 6.55093C12.6131 6.46498 12.4966 6.41669 12.375 6.41669H3.20833C3.08678 6.41669 2.9702 6.46498 2.88424 6.55093C2.79829 6.63688 2.75 6.75346 2.75 6.87502C2.75 6.99658 2.79829 7.11316 2.88424 7.19911C2.9702 7.28507 3.08678 7.33335 3.20833 7.33335Z" fill="#E7B51E"/>
<path id="Vector_16" d="M9.625 11H3.20833C3.08678 11 2.9702 11.0483 2.88424 11.1342C2.79829 11.2202 2.75 11.3368 2.75 11.4583C2.75 11.5799 2.79829 11.6965 2.88424 11.7824C2.9702 11.8684 3.08678 11.9167 3.20833 11.9167H9.625C9.74656 11.9167 9.86314 11.8684 9.94909 11.7824C10.035 11.6965 10.0833 11.5799 10.0833 11.4583C10.0833 11.3368 10.035 11.2202 9.94909 11.1342C9.86314 11.0483 9.74656 11 9.625 11Z" fill="#E7B51E"/>
<path id="Vector_17" d="M9.625 15.5833H3.20833C3.08678 15.5833 2.9702 15.6316 2.88424 15.7176C2.79829 15.8035 2.75 15.9201 2.75 16.0416C2.75 16.1632 2.79829 16.2798 2.88424 16.3657C2.9702 16.4517 3.08678 16.5 3.20833 16.5H9.625C9.74656 16.5 9.86314 16.4517 9.94909 16.3657C10.035 16.2798 10.0833 16.1632 10.0833 16.0416C10.0833 15.9201 10.035 15.8035 9.94909 15.7176C9.86314 15.6316 9.74656 15.5833 9.625 15.5833Z" fill="#E7B51E"/>
</g>
</g>
</svg>
