<svg width="25" height="29" viewBox="0 0 25 29" fill="none" xmlns="http://www.w3.org/2000/svg">
<g id="XMLID_1143_">
<g id="XMLID_726_">
<path id="XMLID_727_" d="M23.8372 3.4597L12.2825 0.0234917C12.1772 -0.00783055 12.0649 -0.00783055 11.9596 0.0234917L0.404923 3.4597C0.164711 3.53107 0 3.75197 0 4.0026V12.6312C0 16.2955 1.14318 19.7957 3.30599 22.7536C5.46881 25.7115 8.45762 27.8621 11.9493 28.9733C12.0052 28.9911 12.0631 29 12.1211 29C12.179 29 12.237 28.9911 12.2928 28.9733C14.6279 28.2303 16.7339 27.025 18.5523 25.3908C18.785 25.1817 18.804 24.8236 18.595 24.5909C18.3859 24.3584 18.0278 24.3392 17.7951 24.5483C16.1418 26.0341 14.2337 27.1404 12.1211 27.8381C5.54092 25.6641 1.13281 19.5759 1.13281 12.6312V4.42503L12.1211 1.15727L23.1093 4.42503V12.6312C23.1093 15.4842 22.3457 18.2907 20.901 20.7473C20.7424 21.017 20.8324 21.3641 21.1021 21.5227C21.3717 21.6812 21.7189 21.5911 21.8774 21.3215C23.4244 18.6911 24.2422 15.686 24.2422 12.6312V4.0026C24.2422 3.75197 24.0774 3.53107 23.8372 3.4597Z" fill="#E7B51E"/>
<path id="XMLID_743_" d="M20.0497 9.31802C17.4571 8.62565 14.6691 9.37302 12.7738 11.2684C11.9454 12.0968 11.3363 13.0957 10.9709 14.1742C10.6994 13.673 10.3555 13.2069 9.94276 12.7942C8.43125 11.2827 6.20817 10.6867 4.14068 11.2389C3.94481 11.2912 3.79188 11.4441 3.73955 11.6399C3.18753 13.7073 3.7835 15.9305 5.2949 17.442C6.43365 18.5807 7.97632 19.1998 9.55206 19.1998C10.0678 19.1998 10.5872 19.1334 11.0969 18.9973C11.142 18.9853 11.1843 18.9674 11.2241 18.9454C11.2241 18.9454 11.2243 18.9455 11.2243 18.9455C11.8638 19.1163 12.5148 19.1994 13.1617 19.1994C15.1376 19.1994 17.0724 18.423 18.5003 16.9951C20.3957 15.0997 21.143 12.3116 20.4507 9.71909C20.3985 9.52323 20.2455 9.3703 20.0497 9.31802ZM6.09596 16.6409C4.94854 15.4935 4.45135 13.8405 4.75896 12.2581C6.34122 11.9508 7.99438 12.4478 9.1417 13.5951C10.1166 14.57 10.6217 15.9098 10.5631 17.2612L8.80429 15.5024C8.58311 15.2812 8.22446 15.2812 8.00322 15.5024C7.78204 15.7236 7.78204 16.0822 8.00322 16.3034L9.76202 18.0622C8.41081 18.1208 7.07075 17.6157 6.09596 16.6409ZM17.6993 16.1941C16.4861 17.4074 14.8425 18.0669 13.1633 18.0668C12.954 18.0668 12.7441 18.0562 12.5344 18.0355L15.0325 15.5373C15.2537 15.3161 15.2537 14.9575 15.0325 14.7363C14.8114 14.5151 14.4527 14.5151 14.2315 14.7363L11.7337 17.234C11.547 15.3428 12.2104 13.4337 13.5747 12.0694C15.1065 10.5377 17.3247 9.88828 19.4337 10.3351C19.8803 12.444 19.2311 14.6623 17.6993 16.1941Z" fill="#E7B51E"/>
<path id="XMLID_745_" d="M21.022 6.40437C21.0759 6.4204 21.1303 6.42805 21.1837 6.42805C21.4279 6.42805 21.6532 6.26889 21.7264 6.02296C21.8155 5.7231 21.6448 5.40778 21.345 5.31858L12.2825 2.62351C11.9826 2.53424 11.6673 2.70512 11.5781 3.00492C11.4889 3.30478 11.6597 3.6201 11.9595 3.7093L21.022 6.40437Z" fill="#E7B51E"/>
<path id="XMLID_746_" d="M5.88834 20.1423C5.7148 19.882 5.36323 19.8116 5.10291 19.9852C4.84259 20.1587 4.77224 20.5104 4.94579 20.7707C6.63968 23.3118 9.05115 25.2322 11.9195 26.3242C11.9858 26.3494 12.0539 26.3614 12.1209 26.3614C12.3492 26.3614 12.5643 26.2224 12.6504 25.9964C12.7617 25.7041 12.6149 25.3769 12.3225 25.2656C9.67567 24.2578 7.45077 22.4863 5.88834 20.1423Z" fill="#E7B51E"/>
<path id="XMLID_747_" d="M19.9324 22.5593C19.7834 22.5593 19.6373 22.6199 19.5319 22.7253C19.4266 22.8307 19.366 22.9768 19.366 23.1257C19.366 23.2747 19.4266 23.4208 19.5319 23.5261C19.6373 23.6315 19.7834 23.6922 19.9324 23.6922C20.0813 23.6922 20.2275 23.6315 20.3328 23.5261C20.4382 23.4208 20.4988 23.2747 20.4988 23.1257C20.4988 22.9768 20.4382 22.8306 20.3328 22.7253C20.2275 22.6199 20.0814 22.5593 19.9324 22.5593Z" fill="#E7B51E"/>
</g>
</g>
</svg>
