<svg width="25" height="22" viewBox="0 0 25 22" fill="none" xmlns="http://www.w3.org/2000/svg">
<g id="Group">
<path id="Vector" d="M23.1601 0H1.72364C0.773273 0 0 0.773273 0 1.72364V16.267C0 17.2174 0.773273 17.9906 1.72364 17.9906H14.2236L13.8461 20.2924C13.7751 20.7257 13.9184 21.1182 14.2296 21.3422C14.5406 21.5662 14.958 21.5782 15.3466 21.3734L18.0434 19.9539C18.1187 19.9153 18.326 19.9153 18.4013 19.9539L21.0981 21.3734C21.2826 21.4705 21.4737 21.5189 21.6568 21.5189C21.8593 21.5189 22.0519 21.4597 22.2152 21.3421C22.5263 21.1181 22.6696 20.7255 22.5987 20.2922L22.2213 17.9905H23.1602C24.1105 17.9905 24.8838 17.2173 24.8838 16.2669V1.72364C24.8837 0.773175 24.1104 0 23.1601 0ZM18.2224 15.0362C16.566 15.0362 15.2183 13.6885 15.2183 12.0322C15.2183 10.3758 16.566 9.02812 18.2224 9.02812C19.8788 9.02812 21.2265 10.3758 21.2265 12.0322C21.2265 13.6885 19.8788 15.0362 18.2224 15.0362ZM19.0894 18.6466C18.587 18.3821 17.8577 18.3821 17.3554 18.6466L15.4487 19.6502L16.0549 15.9528C16.6977 16.3097 17.4366 16.5135 18.2225 16.5135C19.0084 16.5135 19.7472 16.3096 20.3901 15.9528L20.6263 17.3943C20.6269 17.3966 20.6271 17.3992 20.6276 17.4016L20.9963 19.6503L19.0894 18.6466ZM23.4063 16.267C23.4063 16.4005 23.2935 16.5132 23.1601 16.5132H21.979L21.7093 14.8675C21.7082 14.861 21.7064 14.8548 21.7051 14.8483C22.3291 14.0783 22.704 13.0983 22.704 12.0322C22.704 9.56107 20.6936 7.55072 18.2225 7.55072C15.7514 7.55072 13.741 9.56107 13.741 12.0322C13.741 13.0983 14.1159 14.0781 14.7399 14.8483C14.7386 14.8547 14.7368 14.861 14.7357 14.8674L14.4658 16.5145C14.4575 16.5142 14.4495 16.5132 14.4412 16.5132H1.72364C1.59018 16.5132 1.4774 16.4005 1.4774 16.267V1.72364C1.4774 1.59018 1.59018 1.4774 1.72364 1.4774H23.1601C23.2935 1.4774 23.4063 1.59018 23.4063 1.72364V16.267Z" fill="#E7B51E"/>
<path id="Vector_2" d="M20.5476 4.25116H3.80364C3.39558 4.25116 3.06494 4.5818 3.06494 4.98986C3.06494 5.39792 3.39558 5.72856 3.80364 5.72856H20.5476C20.9556 5.72856 21.2863 5.39792 21.2863 4.98986C21.2863 4.5818 20.9556 4.25116 20.5476 4.25116Z" fill="#E7B51E"/>
<path id="Vector_3" d="M10.8952 8.25671H3.80364C3.39558 8.25671 3.06494 8.58736 3.06494 8.99542C3.06494 9.40347 3.39558 9.73412 3.80364 9.73412H10.8952C11.3032 9.73412 11.6339 9.40347 11.6339 8.99542C11.6339 8.58736 11.3032 8.25671 10.8952 8.25671Z" fill="#E7B51E"/>
</g>
</svg>
