<svg width="25" height="25" viewBox="0 0 25 25" fill="none" xmlns="http://www.w3.org/2000/svg">
<g id="Group 14">
<path id="Vector" d="M24.358 5.02936L19.5406 0.211684C19.4051 0.0761178 19.2213 0 19.0296 0H7.94901C6.75362 0 5.7811 0.972525 5.7811 2.16791V11.6989C2.53376 12.0596 0 14.8204 0 18.1623C0 21.7484 2.91757 24.666 6.50373 24.666H22.4017C23.5971 24.666 24.5697 23.6935 24.5697 22.4981V5.54036C24.5697 5.34867 24.4935 5.16493 24.358 5.02936ZM19.7521 2.46723L21.3221 4.03733L22.1024 4.81758H19.7521V2.46723ZM1.44527 18.1623C1.44527 15.373 3.7145 13.1038 6.50373 13.1038C9.29297 13.1038 11.5622 15.373 11.5622 18.1623C11.5622 20.9515 9.29297 23.2207 6.50373 23.2207C3.7145 23.2207 1.44527 20.9515 1.44527 18.1623ZM22.4017 23.2207H10.5866C11.8855 22.1703 12.7732 20.6309 12.9671 18.8849H20.4747C20.8738 18.8849 21.1974 18.5614 21.1974 18.1623C21.1974 17.7632 20.8738 17.4396 20.4747 17.4396H12.9671C12.8493 16.3788 12.4755 15.3941 11.9088 14.5491H20.4747C20.8738 14.5491 21.1974 14.2255 21.1974 13.8265C21.1974 13.4274 20.8738 13.1038 20.4747 13.1038H10.5866C9.64614 12.3433 8.49041 11.8393 7.22637 11.6989V2.16791C7.22637 1.76945 7.55055 1.44527 7.94901 1.44527H18.3068V5.54022C18.3068 5.93931 18.6304 6.26285 19.0294 6.26285H23.1244V22.4981C23.1244 22.8966 22.8002 23.2207 22.4017 23.2207Z" fill="#E7B51E"/>
<path id="Vector_2" d="M20.4747 8.76801H9.87602C9.47693 8.76801 9.15338 9.09155 9.15338 9.49064C9.15338 9.88973 9.47693 10.2133 9.87602 10.2133H20.4747C20.8738 10.2133 21.1973 9.88973 21.1973 9.49064C21.1973 9.09155 20.8738 8.76801 20.4747 8.76801Z" fill="#E7B51E"/>
<path id="Vector_3" d="M9.37529 16.3506C9.09313 16.0684 8.63555 16.0684 8.35334 16.3506L5.49203 19.2119L4.55771 18.2776C4.27554 17.9954 3.81797 17.9954 3.53576 18.2776C3.25354 18.5597 3.25354 19.0173 3.53576 19.2995L4.98103 20.7448C5.12214 20.8859 5.30709 20.9565 5.49203 20.9565C5.67698 20.9565 5.86193 20.8859 6.00298 20.7448L9.37529 17.3725C9.65751 17.0903 9.65751 16.6327 9.37529 16.3506Z" fill="#E7B51E"/>
</g>
</svg>
