<svg width="28" height="21" viewBox="0 0 28 21" fill="none" xmlns="http://www.w3.org/2000/svg">
<g id="Group">
<path id="Vector" d="M24.3553 0H22.0896H17.2222H2.88777C1.29859 0 0 1.29405 0 2.88777V4.60408V17.4401C0 19.0338 1.29859 20.3279 2.88777 20.3279H24.3508C25.9445 20.3279 27.2386 19.0338 27.2386 17.4401V4.60408V2.88777C27.2431 1.29405 25.9445 0 24.3553 0ZM26.4167 2.88777V4.1909H22.4983V0.821834H24.3508C25.4905 0.826374 26.4167 1.75264 26.4167 2.88777ZM21.6764 4.60408V6.63824L19.9238 5.15349C19.7694 5.02181 19.5424 5.02181 19.388 5.15349L17.6308 6.64278V4.60863V0.826374H21.6719V4.60408H21.6764ZM0.826374 2.88777C0.826374 1.7481 1.75264 0.821834 2.89231 0.821834H16.8135V4.1909H0.826374V2.88777ZM26.4167 17.4447C26.4167 18.5843 25.4905 19.5106 24.3508 19.5106H2.88777C1.7481 19.5106 0.821834 18.5843 0.821834 17.4447V5.01727H16.8045V7.53272C16.8045 7.69164 16.8998 7.84147 17.0451 7.90504C17.095 7.92774 17.145 7.93683 17.1995 7.94137C17.204 7.94137 17.2131 7.94591 17.2176 7.94591C17.2267 7.94591 17.2313 7.94137 17.2403 7.94137C17.2721 7.94137 17.2994 7.93228 17.3312 7.92774C17.3448 7.9232 17.3584 7.9232 17.372 7.91866C17.4129 7.9005 17.4537 7.88234 17.4855 7.85055L19.6559 6.01165L21.8217 7.85055C21.9443 7.95499 22.1169 7.97769 22.2622 7.90958C22.4075 7.84147 22.5028 7.69618 22.5028 7.53272V5.01727H26.4213V17.4447H26.4167Z" fill="#E7B51E"/>
<path id="Vector_2" d="M7.36474 7.11951C4.52692 7.11951 2.22034 9.42609 2.22034 12.2639C2.22034 13.3673 2.56088 14.4161 3.21017 15.2924C4.1773 16.6183 5.73016 17.4083 7.36474 17.4083C7.56907 17.4083 7.77339 17.3947 7.97317 17.372C9.38073 17.204 10.6748 16.4548 11.5193 15.297C12.1641 14.4161 12.5092 13.3718 12.5092 12.2639C12.5092 9.42609 10.198 7.11951 7.36474 7.11951ZM6.86983 16.5502C6.81534 16.5456 6.7654 16.532 6.71091 16.5229C6.60194 16.5048 6.49296 16.4911 6.38853 16.4639C6.32497 16.4503 6.26594 16.4276 6.20691 16.4139C6.11156 16.3867 6.01621 16.3595 5.92086 16.3277C5.85729 16.305 5.79827 16.2777 5.7347 16.255C5.64389 16.2187 5.55762 16.1824 5.47135 16.1415C5.41232 16.1097 5.34875 16.0779 5.28973 16.0462C5.208 16.0008 5.12627 15.9554 5.04454 15.9054C4.98551 15.8691 4.93103 15.8282 4.872 15.7874C4.79481 15.7329 4.71762 15.6784 4.64497 15.6194C4.59049 15.5739 4.54054 15.5331 4.48606 15.4831C4.41341 15.4196 4.3453 15.356 4.28173 15.2879C4.23179 15.238 4.18638 15.188 4.13644 15.1335C4.11373 15.1063 4.09103 15.0745 4.06379 15.0473C4.88108 14.0847 6.08886 13.5216 7.35566 13.5216C8.62247 13.5216 9.83025 14.0892 10.6475 15.0473C10.6248 15.0745 10.6021 15.1063 10.5794 15.1335C10.5295 15.188 10.4795 15.2425 10.4296 15.2924C10.366 15.356 10.2979 15.4196 10.2298 15.4831C10.1753 15.5331 10.1208 15.5785 10.0664 15.6239C9.9937 15.6829 9.92106 15.7374 9.84841 15.7874C9.78938 15.8282 9.73035 15.8691 9.67133 15.9054C9.59414 15.9554 9.51241 16.0008 9.43068 16.0462C9.37165 16.0779 9.30809 16.1143 9.24452 16.1461C9.15825 16.1869 9.07198 16.2232 8.98571 16.2596C8.92214 16.2868 8.86311 16.3141 8.79955 16.3368C8.70874 16.3685 8.61339 16.3958 8.51804 16.423C8.45447 16.4412 8.39544 16.4594 8.33187 16.473C8.22744 16.4957 8.11847 16.5138 8.0095 16.532C7.95501 16.5411 7.90507 16.5502 7.85058 16.5592C7.68712 16.5774 7.52366 16.591 7.35566 16.591C7.18766 16.591 7.03329 16.5683 6.86983 16.5502ZM6.32497 11.6555C6.32497 11.0834 6.79264 10.6157 7.36474 10.6157C7.93685 10.6157 8.40452 11.0834 8.40452 11.6555C8.40452 12.2276 7.93685 12.6953 7.36474 12.6953C6.79264 12.6907 6.32497 12.2276 6.32497 11.6555ZM11.1425 14.348C10.4932 13.6442 9.65771 13.1448 8.74506 12.8905C9.04019 12.559 9.22636 12.1277 9.22636 11.6555C9.22636 10.6293 8.3909 9.79387 7.36474 9.79387C6.33859 9.79387 5.50313 10.6293 5.50313 11.6555C5.50313 12.1322 5.68929 12.5636 5.98443 12.8905C5.07178 13.1493 4.23633 13.6442 3.58703 14.348C3.23287 13.7169 3.04671 13.004 3.04671 12.2639C3.04671 9.88468 4.98551 7.94588 7.36474 7.94588C9.74398 7.94588 11.6828 9.88468 11.6828 12.2639C11.6828 13.004 11.4966 13.7169 11.1425 14.348Z" fill="#E7B51E"/>
<path id="Vector_3" d="M14.6295 9.39436C14.6295 9.62138 14.8157 9.80754 15.0427 9.80754H24.7004C24.9274 9.80754 25.1136 9.62138 25.1136 9.39436C25.1136 9.16733 24.9274 8.98117 24.7004 8.98117H15.0427C14.8157 8.98117 14.6295 9.16733 14.6295 9.39436Z" fill="#E7B51E"/>
<path id="Vector_4" d="M24.7004 11.8508H15.0427C14.8157 11.8508 14.6295 12.0369 14.6295 12.264C14.6295 12.491 14.8157 12.6771 15.0427 12.6771H24.7004C24.9274 12.6771 25.1136 12.491 25.1136 12.264C25.1136 12.0369 24.9274 11.8508 24.7004 11.8508Z" fill="#E7B51E"/>
<path id="Vector_5" d="M24.7004 14.7203H15.0427C14.8157 14.7203 14.6295 14.9065 14.6295 15.1335C14.6295 15.3605 14.8157 15.5467 15.0427 15.5467H24.7004C24.9274 15.5467 25.1136 15.3605 25.1136 15.1335C25.1136 14.9065 24.9274 14.7203 24.7004 14.7203Z" fill="#E7B51E"/>
</g>
</svg>
