<svg width="25" height="27" viewBox="0 0 25 27" fill="none" xmlns="http://www.w3.org/2000/svg">
<g id="Group 15">
<path id="Vector" d="M21.2009 5.68344C19.279 3.71452 16.7916 2.46253 14.0922 2.08167L14.8616 1.31964C15.1664 1.01774 15.1664 0.528293 14.8616 0.226389C14.5568 -0.0754631 14.0626 -0.0754631 13.7578 0.226389L11.7811 2.18408C11.4762 2.48593 11.4762 2.97543 11.7811 3.27733L13.7577 5.23502C13.9101 5.38597 14.1099 5.46147 14.3096 5.46147C14.5093 5.46147 14.7091 5.38597 14.8615 5.23502C15.1663 4.93316 15.1663 4.44366 14.8615 4.14176L14.4195 3.70395C16.564 4.1196 18.531 5.17271 20.0784 6.75799C22.03 8.75742 23.1048 11.3905 23.1048 14.1723C23.1049 20.0549 18.2726 24.8408 12.333 24.8408C6.39341 24.8408 1.56109 20.0549 1.56109 14.1723C1.56109 11.9276 2.25667 9.78038 3.57267 7.96277C4.86135 6.18283 6.63788 4.85467 8.71033 4.12192C9.11632 3.97834 9.3279 3.53605 9.18298 3.1339C9.03806 2.73181 8.59138 2.52226 8.18539 2.66579C5.81237 3.50487 3.77863 5.025 2.30397 7.0618C0.796678 9.14369 0 11.6025 0 14.1724C0 17.435 1.28285 20.5023 3.61227 22.8094C5.94168 25.1163 9.03873 26.3869 12.333 26.3869C15.6273 26.3869 18.7243 25.1164 21.0537 22.8094C23.3832 20.5023 24.666 17.435 24.666 14.1723C24.666 10.9874 23.4353 7.97266 21.2009 5.68344Z" fill="#E7B51E"/>
<path id="Taka" d="M12.333 8.03079C9.00668 8.03079 6.30994 10.7915 6.30994 14.1973C6.30994 17.6031 9.00668 20.3638 12.333 20.3638C15.6594 20.3638 18.3561 17.6028 18.3561 14.1973C18.3561 10.7917 15.6594 8.03079 12.333 8.03079ZM14.2887 16.7793C13.7294 17.4022 12.6598 17.7134 12.2872 17.7134C11.6905 17.7134 11.4599 17.5932 11.2656 17.4566C11.0698 17.3188 10.8153 16.9929 10.8153 16.5834V14.2028H10.1087L9.43183 13.4795H10.8153V12.0479C10.8153 11.728 10.5033 11.5536 10.3002 11.5356C10.1751 11.5245 10.0403 11.5606 9.99108 11.611C9.90285 11.4604 9.81933 11.2795 9.74098 11.0685C9.74098 11.0685 9.81086 10.8134 10.0353 10.6617C10.1908 10.5566 10.3372 10.5261 10.5652 10.5261C11.0002 10.5261 11.1999 10.7347 11.2926 10.8741C11.4284 11.0786 11.5512 11.4094 11.5512 11.8971V13.4792H11.9632L12.6549 14.2026H11.5512V16.2518C11.5512 16.4124 11.61 16.5582 11.7279 16.6887C11.8455 16.8193 12.0371 16.8845 12.302 16.8845C12.6455 16.8845 13.0085 16.6887 13.3911 16.2968C13.7835 15.895 13.9896 15.4831 14.0091 15.0613L13.8325 15.0765C13.2045 15.0765 12.8906 14.7349 12.8906 14.0518C12.8906 13.8208 12.9643 13.6148 13.1113 13.4339C13.2586 13.253 13.5038 13.1627 13.8473 13.1627C14.2103 13.1627 14.5145 13.3234 14.7597 13.645C15.0147 13.9663 15.1422 14.3582 15.1422 14.8202C15.1422 15.5033 14.8578 16.1561 14.2887 16.779V16.7793Z" fill="#E7B51E"/>
</g>
</svg>
