<svg width="117" height="48" viewBox="0 0 117 48" fill="none" xmlns="http://www.w3.org/2000/svg">
<g id="Group 1">
<g id="Group">
<path id="Vector" d="M9.17043 37.3035C9.92732 37.9801 10.4522 38.8664 10.7422 39.9623L8.90425 40.398C8.74366 39.6352 8.39421 39.0522 7.85739 38.6493C7.32058 38.2463 6.71239 38.0455 6.0358 38.0455C5.14359 38.0455 4.37034 38.395 3.71456 39.0924C3.05879 39.7913 2.73165 40.7906 2.73165 42.0902C2.73165 43.3899 3.05879 44.3921 3.71456 45.0955C4.37034 45.7988 5.14359 46.1513 6.0358 46.1513C6.71239 46.1513 7.31909 45.9475 7.85739 45.5386C8.39421 45.1297 8.74366 44.5453 8.90425 43.7824L10.7422 44.2181C10.485 45.3037 9.97193 46.187 9.20314 46.8695C8.43436 47.552 7.37857 47.8926 6.0358 47.8926C4.4893 47.8926 3.22385 47.3691 2.24093 46.3208C1.25801 45.2724 0.765808 43.8627 0.765808 42.0902C0.765808 40.3177 1.25801 38.9214 2.24093 37.8671C3.22385 36.8128 4.4893 36.2879 6.0358 36.2879C7.36816 36.2879 8.41354 36.6269 9.17043 37.3035Z" fill="#2A2A2A"/>
<path id="Vector_2" d="M20.7513 37.8996C21.7075 38.9732 22.1863 40.371 22.1863 42.09C22.1863 43.809 21.7075 45.2187 20.7513 46.2879C19.7952 47.357 18.5431 47.8909 16.9966 47.8909C15.4501 47.8909 14.1951 47.3541 13.233 46.2789C12.2709 45.2038 11.7906 43.8075 11.7906 42.0885C11.7906 40.3695 12.2709 38.9732 13.233 37.8981C14.1951 36.823 15.4486 36.2862 16.9966 36.2862C18.5446 36.2862 19.7952 36.823 20.7513 37.8981V37.8996ZM14.5951 39.1963C13.9616 39.9532 13.6449 40.9183 13.6449 42.0885C13.6449 43.2588 13.9616 44.2402 14.5951 44.9971C15.2285 45.754 16.03 46.1332 16.9966 46.1332C17.9632 46.1332 18.7617 45.754 19.3892 44.9971C20.0167 44.2402 20.332 43.2692 20.332 42.0885C20.332 40.9078 20.0182 39.9532 19.3892 39.1963C18.7602 38.4394 17.9632 38.0602 16.9966 38.0602C16.03 38.0602 15.2285 38.4394 14.5951 39.1963Z" fill="#2A2A2A"/>
<path id="Vector_3" d="M33.8862 36.4483V47.7303H31.8713L26.2146 39.4134V47.7303H24.1997V36.4483H26.2146L31.8713 44.7652V36.4483H33.8862Z" fill="#2A2A2A"/>
<path id="Vector_4" d="M42.9109 37.287C43.641 37.9531 44.0767 38.8022 44.2165 39.8327L42.4112 40.493C42.3042 39.687 42.0276 39.0848 41.5815 38.6877C41.1354 38.2907 40.5584 38.0914 39.8491 38.0914C39.2364 38.0914 38.7532 38.2208 38.3993 38.4781C38.0453 38.7353 37.8669 39.0803 37.8669 39.51C37.8669 39.6825 37.8937 39.8372 37.9472 39.977C38.0007 40.1167 38.1063 40.2402 38.261 40.3472C38.4156 40.4543 38.5539 40.5435 38.6714 40.6134C38.7889 40.6833 38.9941 40.7606 39.284 40.8469C39.574 40.9331 39.7971 40.9941 39.9532 41.0328C40.1093 41.0699 40.38 41.1324 40.7666 41.2186C41.2722 41.3361 41.7094 41.4655 42.0796 41.6053C42.4499 41.745 42.8291 41.9383 43.2157 42.1852C43.6023 42.432 43.8982 42.7488 44.102 43.1354C44.3057 43.522 44.4083 43.9741 44.4083 44.4886C44.4083 45.5087 44.0083 46.331 43.2083 46.9541C42.4083 47.5771 41.4224 47.8894 40.2506 47.8894C38.9941 47.8894 37.9353 47.5295 37.0758 46.8098C36.2163 46.0901 35.7375 45.1771 35.6408 44.0707L37.4461 43.3287C37.5859 44.2417 37.916 44.9302 38.4379 45.3912C38.9584 45.8537 39.5844 46.0841 40.316 46.0841C40.9183 46.0841 41.4149 45.9369 41.8075 45.641C42.2001 45.3451 42.3964 44.9674 42.3964 44.5049C42.3964 44.1079 42.2462 43.8016 41.9458 43.586C41.6454 43.3703 41.1725 43.183 40.5272 43.0224C40.0647 42.9049 39.7078 42.8097 39.455 42.7398C39.2022 42.67 38.8587 42.5629 38.4231 42.4172C37.9874 42.2714 37.6468 42.1212 37.4 41.9651C37.1531 41.809 36.8944 41.6157 36.6267 41.3852C36.3576 41.1547 36.1628 40.8855 36.0379 40.5792C35.9145 40.2729 35.852 39.9324 35.852 39.5561C35.852 38.6208 36.2356 37.8431 37.0044 37.2186C37.7732 36.5955 38.7636 36.2832 39.9785 36.2832C41.1934 36.2832 42.1807 36.6163 42.9124 37.2825L42.9109 37.287Z" fill="#2A2A2A"/>
<path id="Vector_5" d="M55.4821 43.4596C55.4821 44.8455 55.0494 45.931 54.1839 46.7146C53.3185 47.4983 52.1779 47.8909 50.7593 47.8909C49.3407 47.8909 48.1972 47.4983 47.3258 46.7146C46.4559 45.931 46.0202 44.8455 46.0202 43.4596V36.4483H48.0351V42.5733C48.0351 44.7756 48.9437 45.8775 50.7593 45.8775C52.575 45.8775 53.375 44.7756 53.4181 42.5733V36.4483H55.4806V43.4596H55.4821Z" fill="#2A2A2A"/>
<path id="Vector_6" d="M64.4756 45.925V47.7303H57.8361V36.4483H59.851V45.925H64.4771H64.4756Z" fill="#2A2A2A"/>
<path id="Vector_7" d="M73.0497 38.2535H69.6325V47.7303H67.6176V38.2535H64.2005V36.4483H73.0482V38.2535H73.0497Z" fill="#2A2A2A"/>
<path id="Vector_8" d="M79.7056 44.8455H75.6282L74.5813 47.7303H72.5664L76.6438 36.4483H78.69L82.7674 47.7303H80.7525L79.7056 44.8455ZM79.093 43.1532L77.6743 39.1889L76.2394 43.1532H79.0915H79.093Z" fill="#2A2A2A"/>
<path id="Vector_9" d="M93.9378 36.4483V47.7303H91.9229L86.2663 39.4134V47.7303H84.2514V36.4483H86.2663L91.9229 44.7652V36.4483H93.9378Z" fill="#2A2A2A"/>
<path id="Vector_10" d="M104.357 37.3033C105.114 37.9799 105.639 38.8662 105.929 39.9621L104.091 40.3978C103.931 39.635 103.581 39.052 103.044 38.6491C102.508 38.2461 101.901 38.0453 101.223 38.0453C100.331 38.0453 99.5573 38.3948 98.9015 39.0922C98.2457 39.7911 97.9186 40.7904 97.9186 42.09C97.9186 43.3897 98.2457 44.3919 98.9015 45.0953C99.5573 45.7986 100.331 46.1511 101.223 46.1511C101.899 46.1511 102.506 45.9473 103.044 45.5384C103.581 45.1295 103.931 44.5451 104.091 43.7822L105.929 44.2179C105.672 45.3035 105.159 46.1868 104.39 46.8693C103.621 47.5518 102.566 47.8924 101.223 47.8924C99.6762 47.8924 98.4108 47.3689 97.4279 46.3206C96.445 45.2722 95.9528 43.8625 95.9528 42.09C95.9528 40.3175 96.445 38.9212 97.4279 37.8669C98.4108 36.8126 99.6762 36.2877 101.223 36.2877C102.555 36.2877 103.6 36.6267 104.357 37.3033Z" fill="#2A2A2A"/>
<path id="Vector_11" d="M117 36.4483L112.729 43.3778V47.7288H110.714V43.3778L106.444 36.4483H108.459L111.73 41.751L114.985 36.4483H117Z" fill="#2A2A2A"/>
</g>
<g id="Group_2">
<path id="Vector_12" d="M17.6851 9.70576H11.6344V26.46H6.04919V9.70576H0L0.0312274 4.7421H17.6851V9.70576Z" fill="#2A2A2A"/>
<path id="Vector_13" d="M39.8848 24.8629C40.0602 25.5142 40.3249 26.0466 40.6759 26.4615H35.1843C34.8527 25.9648 34.5954 24.4971 34.4081 22.0554C34.3873 21.6212 34.3516 21.2495 34.2995 20.9387C34.2475 20.6279 34.1553 20.277 34.02 19.8844C33.8861 19.4918 33.7092 19.1766 33.4921 18.9387C33.275 18.7007 32.9746 18.494 32.5924 18.3186C32.2103 18.1431 31.7597 18.0554 31.2422 18.0554H27.6749V26.463H22.0896V4.7421H33.1976C34.9152 4.7421 36.42 5.40977 37.7122 6.74362C39.0044 8.07748 39.6513 9.68643 39.6513 11.5675C39.6513 12.8092 39.3465 13.9259 38.7368 14.9178C38.1271 15.9111 37.3152 16.6858 36.3011 17.2449C38.2253 17.865 39.2691 19.303 39.4342 21.5573C39.5576 23.1082 39.7078 24.2101 39.8848 24.8614V24.8629ZM33.2765 13.3519C33.8044 12.9073 34.0676 12.3125 34.0676 11.5675C34.0676 9.70576 33.0326 8.77489 30.9656 8.77489H27.6764V14.0181H30.9656C31.9798 14.0181 32.7501 13.7951 33.2765 13.3504V13.3519Z" fill="#2A2A2A"/>
</g>
<g id="Group_3">
<path id="Vector_14" d="M95.6509 11.0411L90.6872 12.9029C90.3556 11.7445 89.8441 10.8701 89.1511 10.2812C88.4582 9.69239 87.6463 9.39647 86.7154 9.39647C85.9912 9.39647 85.4128 9.52584 84.9786 9.78458C84.5444 10.0433 84.3273 10.4106 84.3273 10.8865C84.3273 11.0307 84.3481 11.1705 84.3897 11.3058C84.4313 11.4411 84.4983 11.5586 84.5919 11.6627C84.6856 11.7668 84.7778 11.859 84.8715 11.9422C84.9652 12.0255 85.1094 12.1133 85.3057 12.2054C85.502 12.2991 85.673 12.3705 85.8172 12.4226C85.9615 12.4746 86.1682 12.5415 86.4373 12.6248C86.7065 12.7081 86.9281 12.775 87.105 12.827C87.2805 12.8791 87.5392 12.9504 87.8812 13.0441L88.7348 13.2761C89.5616 13.5244 90.2233 13.7311 90.7199 13.8962C91.2166 14.0612 91.8426 14.3363 92.5966 14.7185C93.3505 15.1007 93.9408 15.5096 94.3646 15.9438C94.7884 16.378 95.1617 16.952 95.4814 17.6658C95.8011 18.3795 95.9617 19.181 95.9617 20.0703C95.9617 22.1387 95.1557 23.773 93.5423 24.973C91.9289 26.173 89.9437 26.7723 87.5853 26.7723C85.1035 26.7723 83.0246 26.0897 81.3488 24.7246C79.6729 23.3596 78.6811 21.6331 78.3703 19.5439L83.3339 17.4963C84.1206 20.3707 85.6091 21.8086 87.8024 21.8086C88.485 21.8086 89.0842 21.648 89.6017 21.3283C90.1192 21.0071 90.3779 20.5788 90.3779 20.0405C90.3779 19.6063 90.2233 19.2807 89.9125 19.0636C89.6017 18.8465 88.9504 18.5729 87.9586 18.2413C87.0693 17.9513 86.4745 17.7609 86.1741 17.6673C85.8738 17.5736 85.3057 17.3669 84.467 17.0472C83.6298 16.726 83.0246 16.4583 82.6514 16.2412C82.2796 16.0241 81.7874 15.7089 81.1777 15.2955C80.5681 14.8821 80.1235 14.4731 79.8439 14.0702C79.5643 13.6672 79.3115 13.1809 79.084 12.6114C78.8565 12.0419 78.7435 11.4381 78.7435 10.7958C78.7435 8.89237 79.5346 7.35777 81.1168 6.18898C82.699 5.02018 84.7005 4.43578 87.1199 4.43578C91.4635 4.43578 94.3081 6.63806 95.6524 11.0441L95.6509 11.0411Z" fill="#2A2A2A"/>
<path id="Vector_15" d="M116.655 9.70577H110.604V26.46H105.019V9.70577H98.9684L98.9997 4.74211H116.654V9.70577H116.655Z" fill="#2A2A2A"/>
</g>
<path id="Vector_16" d="M71.1329 0V3.13909L62.8562 5.64472L60.8562 23.5142H58.2747L56.2241 5.61944L48.0232 3.13909V0H45.125V18.5059C45.125 25.5395 50.8262 31.2407 57.8598 31.2407H61.2963C68.3299 31.2407 74.0311 25.5395 74.0311 18.5059V0H71.1329Z" fill="#E7B51E"/>
</g>
</svg>
