<svg width="117" height="48" viewBox="0 0 117 48" fill="none" xmlns="http://www.w3.org/2000/svg">
<g id="Group 1">
<g id="Group">
<path id="Vector" d="M9.17043 37.3037C9.92732 37.9803 10.4522 38.8666 10.7422 39.9625L8.90425 40.3982C8.74366 39.6354 8.39421 39.0525 7.85739 38.6495C7.32058 38.2465 6.71239 38.0457 6.0358 38.0457C5.14359 38.0457 4.37034 38.3952 3.71456 39.0926C3.05879 39.7915 2.73165 40.7908 2.73165 42.0904C2.73165 43.3901 3.05879 44.3923 3.71456 45.0957C4.37034 45.7991 5.14359 46.1515 6.0358 46.1515C6.71239 46.1515 7.31909 45.9477 7.85739 45.5388C8.39421 45.1299 8.74366 44.5455 8.90425 43.7827L10.7422 44.2183C10.485 45.3039 9.97193 46.1872 9.20314 46.8697C8.43436 47.5522 7.37857 47.8928 6.0358 47.8928C4.4893 47.8928 3.22385 47.3693 2.24093 46.321C1.25801 45.2726 0.765808 43.863 0.765808 42.0904C0.765808 40.3179 1.25801 38.9216 2.24093 37.8673C3.22385 36.813 4.4893 36.2881 6.0358 36.2881C7.36816 36.2881 8.41354 36.6271 9.17043 37.3037Z" fill="white"/>
<path id="Vector_2" d="M20.7513 37.8995C21.7075 38.9732 22.1863 40.371 22.1863 42.09C22.1863 43.8089 21.7075 45.2186 20.7513 46.2878C19.7952 47.357 18.5431 47.8908 16.9966 47.8908C15.4501 47.8908 14.1951 47.354 13.233 46.2789C12.2709 45.2038 11.7906 43.8075 11.7906 42.0885C11.7906 40.3695 12.2709 38.9732 13.233 37.8981C14.1951 36.8229 15.4486 36.2861 16.9966 36.2861C18.5446 36.2861 19.7952 36.8229 20.7513 37.8981V37.8995ZM14.5951 39.1962C13.9616 39.9531 13.6449 40.9182 13.6449 42.0885C13.6449 43.2588 13.9616 44.2402 14.5951 44.9971C15.2285 45.754 16.03 46.1332 16.9966 46.1332C17.9632 46.1332 18.7617 45.754 19.3892 44.9971C20.0167 44.2402 20.332 43.2692 20.332 42.0885C20.332 40.9078 20.0182 39.9531 19.3892 39.1962C18.7602 38.4393 17.9632 38.0601 16.9966 38.0601C16.03 38.0601 15.2285 38.4393 14.5951 39.1962Z" fill="white"/>
<path id="Vector_3" d="M33.8862 36.4482V47.7302H31.8713L26.2146 39.4134V47.7302H24.1997V36.4482H26.2146L31.8713 44.7651V36.4482H33.8862Z" fill="white"/>
<path id="Vector_4" d="M42.9109 37.2869C43.641 37.9531 44.0767 38.8022 44.2165 39.8327L42.4112 40.4929C42.3042 39.687 42.0276 39.0847 41.5815 38.6877C41.1354 38.2907 40.5584 38.0914 39.8491 38.0914C39.2364 38.0914 38.7532 38.2208 38.3993 38.478C38.0453 38.7353 37.8669 39.0803 37.8669 39.51C37.8669 39.6825 37.8937 39.8372 37.9472 39.977C38.0007 40.1167 38.1063 40.2402 38.261 40.3472C38.4156 40.4543 38.5539 40.5435 38.6714 40.6134C38.7889 40.6833 38.9941 40.7606 39.284 40.8469C39.574 40.9331 39.7971 40.9941 39.9532 41.0327C40.1093 41.0699 40.38 41.1324 40.7666 41.2186C41.2722 41.3361 41.7094 41.4655 42.0796 41.6052C42.4499 41.745 42.8291 41.9383 43.2157 42.1852C43.6023 42.432 43.8982 42.7488 44.102 43.1354C44.3057 43.522 44.4083 43.9741 44.4083 44.4886C44.4083 45.5087 44.0083 46.331 43.2083 46.954C42.4083 47.5771 41.4224 47.8894 40.2506 47.8894C38.9941 47.8894 37.9353 47.5295 37.0758 46.8098C36.2163 46.0901 35.7375 45.1771 35.6408 44.0707L37.4461 43.3287C37.5859 44.2417 37.916 44.9302 38.4379 45.3912C38.9584 45.8536 39.5844 46.0841 40.316 46.0841C40.9183 46.0841 41.4149 45.9369 41.8075 45.641C42.2001 45.3451 42.3964 44.9674 42.3964 44.5049C42.3964 44.1079 42.2462 43.8016 41.9458 43.5859C41.6454 43.3703 41.1725 43.183 40.5272 43.0224C40.0647 42.9049 39.7078 42.8097 39.455 42.7398C39.2022 42.6699 38.8587 42.5629 38.4231 42.4171C37.9874 42.2714 37.6468 42.1212 37.4 41.9651C37.1531 41.809 36.8944 41.6156 36.6267 41.3852C36.3576 41.1547 36.1628 40.8855 36.0379 40.5792C35.9145 40.2729 35.852 39.9323 35.852 39.5561C35.852 38.6208 36.2356 37.8431 37.0044 37.2185C37.7732 36.5955 38.7636 36.2832 39.9785 36.2832C41.1934 36.2832 42.1807 36.6163 42.9124 37.2825L42.9109 37.2869Z" fill="white"/>
<path id="Vector_5" d="M55.4821 43.4595C55.4821 44.8454 55.0494 45.931 54.1839 46.7146C53.3185 47.4983 52.1779 47.8908 50.7593 47.8908C49.3407 47.8908 48.1972 47.4983 47.3258 46.7146C46.4559 45.931 46.0202 44.8454 46.0202 43.4595V36.4482H48.0351V42.5733C48.0351 44.7755 48.9437 45.8774 50.7593 45.8774C52.575 45.8774 53.375 44.7755 53.4181 42.5733V36.4482H55.4806V43.4595H55.4821Z" fill="white"/>
<path id="Vector_6" d="M64.4756 45.925V47.7302H57.8361V36.4482H59.851V45.925H64.4771H64.4756Z" fill="white"/>
<path id="Vector_7" d="M73.0497 38.2535H69.6325V47.7302H67.6176V38.2535H64.2005V36.4482H73.0482V38.2535H73.0497Z" fill="white"/>
<path id="Vector_8" d="M79.7056 44.8454H75.6282L74.5813 47.7302H72.5664L76.6438 36.4482H78.69L82.7674 47.7302H80.7525L79.7056 44.8454ZM79.093 43.1532L77.6743 39.1888L76.2394 43.1532H79.0915H79.093Z" fill="white"/>
<path id="Vector_9" d="M93.9378 36.4482V47.7302H91.9229L86.2663 39.4134V47.7302H84.2514V36.4482H86.2663L91.9229 44.7651V36.4482H93.9378Z" fill="white"/>
<path id="Vector_10" d="M104.357 37.3032C105.114 37.9798 105.639 38.8661 105.929 39.962L104.091 40.3977C103.931 39.6349 103.581 39.052 103.044 38.649C102.508 38.246 101.901 38.0453 101.223 38.0453C100.331 38.0453 99.5573 38.3947 98.9015 39.0921C98.2457 39.791 97.9186 40.7903 97.9186 42.0899C97.9186 43.3896 98.2457 44.3918 98.9015 45.0952C99.5573 45.7986 100.331 46.151 101.223 46.151C101.899 46.151 102.506 45.9473 103.044 45.5383C103.581 45.1294 103.931 44.545 104.091 43.7822L105.929 44.2179C105.672 45.3034 105.159 46.1867 104.39 46.8692C103.621 47.5518 102.566 47.8923 101.223 47.8923C99.6762 47.8923 98.4108 47.3689 97.4279 46.3205C96.445 45.2722 95.9528 43.8625 95.9528 42.0899C95.9528 40.3174 96.445 38.9211 97.4279 37.8668C98.4108 36.8125 99.6762 36.2876 101.223 36.2876C102.555 36.2876 103.6 36.6266 104.357 37.3032Z" fill="white"/>
<path id="Vector_11" d="M117 36.4482L112.729 43.3777V47.7288H110.714V43.3777L106.444 36.4482H108.459L111.73 41.7509L114.985 36.4482H117Z" fill="white"/>
</g>
<g id="Group_2">
<path id="Vector_12" d="M17.6851 9.70585H11.6344V26.4601H6.04919V9.70585H0L0.0312274 4.74219H17.6851V9.70585Z" fill="white"/>
<path id="Vector_13" d="M39.8848 24.863C40.0602 25.5143 40.3249 26.0467 40.6759 26.4616H35.1843C34.8527 25.9649 34.5954 24.4972 34.4081 22.0555C34.3873 21.6213 34.3516 21.2496 34.2995 20.9388C34.2475 20.628 34.1553 20.2771 34.02 19.8845C33.8861 19.4919 33.7092 19.1767 33.4921 18.9387C33.275 18.7008 32.9746 18.4941 32.5924 18.3187C32.2103 18.1432 31.7597 18.0555 31.2422 18.0555H27.6749V26.4631H22.0896V4.74219H33.1976C34.9152 4.74219 36.42 5.40986 37.7122 6.74371C39.0044 8.07757 39.6513 9.68652 39.6513 11.5676C39.6513 12.8093 39.3465 13.926 38.7368 14.9178C38.1271 15.9112 37.3152 16.6859 36.3011 17.245C38.2253 17.8651 39.2691 19.3031 39.4342 21.5574C39.5576 23.1083 39.7078 24.2102 39.8848 24.8615V24.863ZM33.2765 13.352C33.8044 12.9074 34.0676 12.3126 34.0676 11.5676C34.0676 9.70585 33.0326 8.77498 30.9656 8.77498H27.6764V14.0182H30.9656C31.9798 14.0182 32.7501 13.7951 33.2765 13.3505V13.352Z" fill="white"/>
</g>
<g id="Group_3">
<path id="Vector_14" d="M95.6509 11.0409L90.6872 12.9026C90.3556 11.7442 89.8441 10.8699 89.1511 10.281C88.4582 9.69215 87.6463 9.39624 86.7154 9.39624C85.9912 9.39624 85.4128 9.52561 84.9786 9.78435C84.5444 10.0431 84.3273 10.4104 84.3273 10.8862C84.3273 11.0305 84.3481 11.1702 84.3897 11.3056C84.4313 11.4409 84.4983 11.5584 84.5919 11.6624C84.6856 11.7665 84.7778 11.8587 84.8715 11.942C84.9652 12.0253 85.1094 12.113 85.3057 12.2052C85.502 12.2989 85.673 12.3703 85.8172 12.4223C85.9615 12.4744 86.1682 12.5413 86.4373 12.6245C86.7065 12.7078 86.9281 12.7747 87.105 12.8268C87.2805 12.8788 87.5392 12.9502 87.8812 13.0439L88.7348 13.2759C89.5616 13.5242 90.2233 13.7309 90.7199 13.8959C91.2166 14.061 91.8426 14.3361 92.5966 14.7183C93.3505 15.1004 93.9408 15.5094 94.3646 15.9436C94.7884 16.3778 95.1617 16.9518 95.4814 17.6655C95.8011 18.3793 95.9617 19.1808 95.9617 20.07C95.9617 22.1385 95.1557 23.7727 93.5423 24.9727C91.9289 26.1728 89.9437 26.772 87.5853 26.772C85.1035 26.772 83.0246 26.0895 81.3488 24.7244C79.6729 23.3593 78.6811 21.6329 78.3703 19.5436L83.3339 17.496C84.1206 20.3704 85.6091 21.8084 87.8024 21.8084C88.485 21.8084 89.0842 21.6478 89.6017 21.3281C90.1192 21.0069 90.3779 20.5786 90.3779 20.0403C90.3779 19.6061 90.2233 19.2804 89.9125 19.0633C89.6017 18.8462 88.9504 18.5726 87.9586 18.241C87.0693 17.951 86.4745 17.7607 86.1741 17.667C85.8738 17.5733 85.3057 17.3666 84.467 17.0469C83.6298 16.7257 83.0246 16.4581 82.6514 16.241C82.2796 16.0239 81.7874 15.7086 81.1777 15.2952C80.5681 14.8818 80.1235 14.4729 79.8439 14.0699C79.5643 13.6669 79.3115 13.1807 79.084 12.6112C78.8565 12.0416 78.7435 11.4379 78.7435 10.7955C78.7435 8.89214 79.5346 7.35754 81.1168 6.18874C82.699 5.01994 84.7005 4.43555 87.1199 4.43555C91.4635 4.43555 94.3081 6.63782 95.6524 11.0439L95.6509 11.0409Z" fill="white"/>
<path id="Vector_15" d="M116.655 9.70536H110.604V26.4596H105.019V9.70536H98.9684L98.9997 4.7417H116.654V9.70536H116.655Z" fill="white"/>
</g>
<path id="Vector_16" d="M71.1329 0V3.13909L62.8562 5.64472L60.8562 23.5142H58.2747L56.2241 5.61944L48.0232 3.13909V0H45.125V18.5059C45.125 25.5395 50.8262 31.2407 57.8598 31.2407H61.2963C68.3299 31.2407 74.0311 25.5395 74.0311 18.5059V0H71.1329Z" fill="#E7B51E"/>
</g>
</svg>
