<svg width="188" height="188" viewBox="0 0 188 188" fill="none" xmlns="http://www.w3.org/2000/svg">
<g id="Group 12">
<g id="Rectangle 4" filter="url(#filter0_d_111_5)">
<rect x="54" y="42" width="80" height="80" rx="12" fill="white"/>
</g>
<path id="Vector" d="M104.804 78.9992C100.285 78.9992 96.6078 82.7003 96.6078 87.2489C96.6078 91.7975 100.285 95.4986 104.804 95.4986C109.323 95.4986 113 91.7975 113 87.2489C113 82.7003 109.323 78.9992 104.804 78.9992ZM108.279 85.9252C105.896 89.5229 106.572 88.5029 105.298 90.425C104.841 91.1156 103.915 91.2987 103.232 90.8403L100.996 89.3404C100.312 88.881 100.128 87.9501 100.584 87.2601C101.04 86.5711 101.965 86.3855 102.651 86.8449L103.645 87.5123C106.022 83.9246 105.894 84.0238 106.294 83.7943C107.651 83.0041 109.151 84.6066 108.279 85.9252ZM98.098 96.2429V104.498C98.098 105.647 99.3347 106.372 100.328 105.8L104.804 103.226L109.28 105.8C110.269 106.371 111.51 105.651 111.51 104.498V96.2429C107.54 99.2496 102.074 99.2539 98.098 96.2429ZM107.784 76.4062V61.2577C107.784 59.4615 106.332 58 104.548 58H78.2365C76.452 58 75 59.4615 75 61.2577V95.9908C75 97.7869 76.452 99.2484 78.2365 99.2484H95.1176C95.1176 92.7937 95.1077 93.1933 95.1409 92.8962C90.1523 84.2877 98.0959 73.698 107.784 76.4062ZM83.9412 65.4997H96.6078C97.4312 65.4997 98.098 66.1709 98.098 66.9997C98.098 67.8284 97.4312 68.4996 96.6078 68.4996H83.9412C83.1178 68.4996 82.451 67.8284 82.451 66.9997C82.451 66.1709 83.1178 65.4997 83.9412 65.4997ZM91.3922 80.4992H83.9412C83.1178 80.4992 82.451 79.8279 82.451 78.9992C82.451 78.1705 83.1178 77.4993 83.9412 77.4993H91.3922C92.2155 77.4993 92.8824 78.1705 92.8824 78.9992C92.8824 79.8279 92.2155 80.4992 91.3922 80.4992ZM83.9412 74.4994C83.1178 74.4994 82.451 73.8282 82.451 72.9994C82.451 72.1707 83.1178 71.4995 83.9412 71.4995H96.6078C97.4312 71.4995 98.098 72.1707 98.098 72.9994C98.098 73.8282 97.4312 74.4994 96.6078 74.4994H83.9412Z" fill="#E7B51E"/>
</g>
<defs>
<filter id="filter0_d_111_5" x="0" y="0" width="188" height="188" filterUnits="userSpaceOnUse" color-interpolation-filters="sRGB">
<feFlood flood-opacity="0" result="BackgroundImageFix"/>
<feColorMatrix in="SourceAlpha" type="matrix" values="0 0 0 0 0 0 0 0 0 0 0 0 0 0 0 0 0 0 127 0" result="hardAlpha"/>
<feOffset dy="12"/>
<feGaussianBlur stdDeviation="27"/>
<feComposite in2="hardAlpha" operator="out"/>
<feColorMatrix type="matrix" values="0 0 0 0 0.49 0 0 0 0 0.405083 0 0 0 0 0.148633 0 0 0 0.16 0"/>
<feBlend mode="normal" in2="BackgroundImageFix" result="effect1_dropShadow_111_5"/>
<feBlend mode="normal" in="SourceGraphic" in2="effect1_dropShadow_111_5" result="shape"/>
</filter>
</defs>
</svg>
