<svg width="94" height="82" viewBox="0 0 94 82" fill="none" xmlns="http://www.w3.org/2000/svg">
<path id="Vector" d="M84.6423 15.2491H64.3876V7.06607C64.3876 3.16972 61.2259 0 57.3398 0H36.6601C32.7739 0 29.6122 3.16972 29.6122 7.06607V15.2491H9.35767C4.19773 15.2491 0 19.458 0 24.6313V72.618C0 77.7913 4.19773 82 9.35767 82H84.6423C89.8021 82 94 77.7913 94 72.618V24.6313C94 19.458 89.8021 15.2491 84.6423 15.2491ZM35.5818 7.06607C35.5818 6.46998 36.0655 5.98518 36.6601 5.98518H57.3398C57.9343 5.98518 58.418 6.47017 58.418 7.06607V15.2491H35.5818V7.06607ZM5.96957 24.6313C5.96957 22.7581 7.48938 21.2343 9.35767 21.2343H84.6423C86.5104 21.2343 88.0304 22.7581 88.0304 24.6313V29.0605C88.0304 33.215 85.252 36.9275 81.2736 38.0888L50.0556 47.2018C48.0567 47.7855 45.9435 47.7855 43.9442 47.2018L12.7264 38.0886C8.74803 36.9273 5.96957 33.215 5.96957 29.0605V24.6313ZM84.6423 76.015H9.35767C7.48957 76.015 5.96957 74.4912 5.96957 72.6182V41.2458C7.47371 42.4114 9.18828 43.2895 11.0575 43.8353C45.5428 53.902 43.7704 53.625 46.9999 53.625C50.2722 53.625 48.4167 53.9138 82.9423 43.8353C84.8117 43.2895 86.5263 42.4114 88.0302 41.2458V72.618C88.0304 74.491 86.5104 76.015 84.6423 76.015Z" fill="white"/>
</svg>
