<svg width="232" height="232" viewBox="0 0 232 232" fill="none" xmlns="http://www.w3.org/2000/svg">
<g id="Group 11">
<g id="Rectangle 3" filter="url(#filter0_d_111_4)">
<rect x="54" y="42" width="124" height="124" rx="12" fill="white"/>
</g>
<path id="Taka" d="M116 71C97.7752 71 83 85.7739 83 104C83 122.226 97.7752 137 116 137C134.225 137 149 122.225 149 104C149 85.7752 134.225 71 116 71ZM126.715 117.817C123.651 121.151 117.791 122.816 115.749 122.816C112.48 122.816 111.216 122.173 110.152 121.442C109.079 120.705 107.684 118.961 107.684 116.769V104.03H103.813L100.105 100.159H107.684V92.4977C107.684 90.7858 105.975 89.8525 104.863 89.7559C104.177 89.6966 103.438 89.8899 103.169 90.1593C102.685 89.3537 102.228 88.3856 101.798 87.2564C101.798 87.2564 102.181 85.8913 103.411 85.0791C104.263 84.5171 105.065 84.3534 106.314 84.3534C108.697 84.3534 109.792 85.4697 110.3 86.2161C111.044 87.3105 111.716 89.0804 111.716 91.6907V100.157H113.974L117.763 104.028H111.716V114.994C111.716 115.854 112.039 116.634 112.685 117.333C113.329 118.031 114.378 118.381 115.83 118.381C117.712 118.381 119.701 117.333 121.797 115.235C123.947 113.085 125.076 110.881 125.183 108.624L124.215 108.705C120.775 108.705 119.055 106.877 119.055 103.221C119.055 101.985 119.459 100.883 120.264 99.915C121.071 98.9469 122.414 98.4635 124.296 98.4635C126.285 98.4635 127.952 99.3233 129.295 101.044C130.693 102.764 131.391 104.861 131.391 107.334C131.391 110.989 129.833 114.483 126.715 117.816V117.817Z" fill="#E7B51E"/>
</g>
<defs>
<filter id="filter0_d_111_4" x="0" y="0" width="232" height="232" filterUnits="userSpaceOnUse" color-interpolation-filters="sRGB">
<feFlood flood-opacity="0" result="BackgroundImageFix"/>
<feColorMatrix in="SourceAlpha" type="matrix" values="0 0 0 0 0 0 0 0 0 0 0 0 0 0 0 0 0 0 127 0" result="hardAlpha"/>
<feOffset dy="12"/>
<feGaussianBlur stdDeviation="27"/>
<feComposite in2="hardAlpha" operator="out"/>
<feColorMatrix type="matrix" values="0 0 0 0 0.49 0 0 0 0 0.405083 0 0 0 0 0.148633 0 0 0 0.16 0"/>
<feBlend mode="normal" in2="BackgroundImageFix" result="effect1_dropShadow_111_4"/>
<feBlend mode="normal" in="SourceGraphic" in2="effect1_dropShadow_111_4" result="shape"/>
</filter>
</defs>
</svg>
