<svg width="78" height="93" viewBox="0 0 78 93" fill="none" xmlns="http://www.w3.org/2000/svg">
<g id="XMLID_1143_">
<g id="XMLID_726_">
<path id="XMLID_727_" d="M76.444 11.095L39.389 0.0753359C39.0512 -0.025112 38.6913 -0.025112 38.3535 0.0753359L1.29856 11.095C0.528214 11.3239 0 12.0323 0 12.836V40.5074C0 52.2583 3.66608 63.4834 10.6021 72.9691C17.5381 82.4546 27.1229 89.3517 38.3206 92.9152C38.4997 92.972 38.6855 93.0007 38.8713 93.0007C39.0572 93.0007 39.243 92.9722 39.4221 92.9152C46.9106 90.5324 53.6643 86.6671 59.4957 81.4263C60.2419 80.7559 60.3031 79.6074 59.6326 78.8612C58.9622 78.1154 57.8137 78.054 57.0675 78.7244C51.7654 83.4893 45.6462 87.0371 38.8713 89.2747C17.7693 82.3028 3.63284 62.7783 3.63284 40.5072V14.1907L38.8713 3.71126L74.1099 14.1907V40.5072C74.1099 49.6565 71.661 58.6568 67.0278 66.535C66.5192 67.3998 66.808 68.5131 67.6727 69.0215C68.5373 69.5301 69.6507 69.2411 70.1591 68.3765C75.1203 59.9408 77.7427 50.3037 77.7427 40.5072V12.836C77.7427 12.0323 77.2145 11.3239 76.444 11.095Z" fill="white"/>
<path id="XMLID_743_" d="M64.2977 29.8822C55.9834 27.6618 47.0425 30.0586 40.9644 36.1371C38.3079 38.7936 36.3547 41.9968 35.1827 45.4556C34.3121 43.8483 33.2092 42.3536 31.8856 41.0299C27.0383 36.1828 19.909 34.2716 13.2787 36.0422C12.6506 36.2099 12.1602 36.7005 11.9923 37.3284C10.2221 43.9584 12.1333 51.088 16.9802 55.9353C20.6321 59.587 25.5793 61.5723 30.6326 61.5723C32.2865 61.5723 33.9521 61.3595 35.5869 60.923C35.7313 60.8845 35.8672 60.8271 35.9947 60.7566C35.9949 60.7566 35.9952 60.7568 35.9954 60.7568C38.0461 61.3044 40.1339 61.5711 42.2085 61.5711C48.545 61.5711 54.7499 59.0811 59.3289 54.5019C65.4072 48.4235 67.804 39.4825 65.5838 31.1684C65.4163 30.5403 64.9257 30.0499 64.2977 29.8822ZM19.5492 53.3661C15.8695 49.6864 14.275 44.3854 15.2615 39.3109C20.3357 38.3253 25.6373 39.9192 29.3166 43.5985C32.443 46.7248 34.0629 51.0215 33.8749 55.3553L28.2346 49.715C27.5253 49.0058 26.3751 49.0058 25.6656 49.715C24.9563 50.4243 24.9563 51.5744 25.6656 52.2839L31.306 57.9243C26.9727 58.1121 22.6752 56.4924 19.5492 53.3661ZM56.7603 51.9332C52.8696 55.8243 47.5987 57.9393 42.2135 57.939C41.5424 57.939 40.8692 57.905 40.1966 57.8385L48.2081 49.827C48.9174 49.1177 48.9174 47.9676 48.2081 47.2581C47.4988 46.5489 46.3486 46.5489 45.6391 47.2581L37.6289 55.2683C37.0302 49.2031 39.1576 43.081 43.533 38.7058C48.4451 33.7937 55.5588 31.711 62.3224 33.1438C63.7544 39.907 61.6726 47.0208 56.7603 51.9332Z" fill="white"/>
<path id="XMLID_745_" d="M67.4161 20.5384C67.5889 20.5898 67.7633 20.6144 67.9346 20.6144C68.7176 20.6144 69.4404 20.1039 69.6749 19.3152C69.9608 18.3536 69.4131 17.3424 68.4517 17.0564L39.389 8.41347C38.4272 8.1272 37.4162 8.67522 37.1301 9.63665C36.8442 10.5983 37.3919 11.6095 38.3533 11.8955L67.4161 20.5384Z" fill="white"/>
<path id="XMLID_746_" d="M18.8836 64.5949C18.3271 63.7603 17.1996 63.5345 16.3648 64.091C15.53 64.6476 15.3044 65.7752 15.8609 66.61C21.2931 74.7592 29.0265 80.9178 38.225 84.4198C38.4377 84.5007 38.6563 84.5392 38.871 84.5392C39.603 84.5392 40.2929 84.0934 40.5689 83.3685C40.9259 82.431 40.4552 81.3817 39.5176 81.0248C31.0293 77.793 23.8942 72.1118 18.8836 64.5949Z" fill="white"/>
<path id="XMLID_747_" d="M63.9213 72.3461C63.4436 72.3461 62.975 72.5402 62.6371 72.8783C62.2993 73.2163 62.1049 73.6848 62.1049 74.1625C62.1049 74.6402 62.2993 75.1088 62.6371 75.4465C62.975 75.7844 63.4436 75.9789 63.9213 75.9789C64.3991 75.9789 64.8677 75.7845 65.2055 75.4465C65.5434 75.1088 65.7378 74.6402 65.7378 74.1625C65.7378 73.6848 65.5434 73.2161 65.2055 72.8783C64.8677 72.5402 64.3992 72.3461 63.9213 72.3461Z" fill="white"/>
</g>
</g>
</svg>
