<svg width="66" height="66" viewBox="0 0 66 66" fill="none" xmlns="http://www.w3.org/2000/svg">
<g id="Group 9">
<path id="Vector" d="M33.1103 23.0259C34.0186 23.0259 34.7543 22.2897 34.7543 21.3818C34.7543 20.474 34.0186 19.7378 33.1103 19.7378C25.8467 19.7378 19.9583 25.6262 19.9583 32.8902C19.9583 40.1538 25.8467 46.0422 33.1103 46.0422C40.3743 46.0422 46.2627 40.1538 46.2627 32.8902C46.2627 31.9819 45.5265 31.2462 44.6187 31.2462C43.7108 31.2462 42.9746 31.9819 42.9746 32.8902C42.9746 38.338 38.5586 42.7546 33.1103 42.7546C27.6625 42.7546 23.2459 38.338 23.2459 32.8902C23.2459 27.4419 27.6625 23.0259 33.1103 23.0259Z" fill="#E7B51E"/>
<path id="Vector_2" d="M64.4787 23.1251C64.1932 22.2625 63.2627 21.7947 62.3996 22.0802C61.5567 22.3592 61.0874 23.2565 61.3387 24.108C66.2552 39.7646 57.549 56.4423 41.8925 61.3588C26.2364 66.2754 9.55868 57.5692 4.64212 41.9127C-0.274949 26.2561 8.43175 9.57836 24.0878 4.6618C29.8835 2.842 36.0972 2.842 41.8925 4.6618C42.7626 4.92414 43.6805 4.43168 43.9429 3.56156C44.2012 2.70454 43.7274 1.79867 42.8759 1.52172C25.4912 -3.93262 6.97602 5.73887 1.52168 23.1241C-3.93266 40.5088 5.73933 59.0239 23.124 64.4783C40.5092 69.9326 59.0239 60.2611 64.4782 42.8759C66.4954 36.4467 66.4954 29.5543 64.4787 23.1251Z" fill="#E7B51E"/>
<path id="Vector_3" d="M36.2412 11.7455C36.2498 10.8094 35.5307 10.0269 34.5972 9.95688C34.1062 9.91508 33.6148 9.87329 33.1107 9.87329C20.3989 9.87329 10.0939 20.1782 10.0939 32.8901C10.0939 45.6014 20.3989 55.9064 33.1107 55.9064C45.8221 55.9064 56.127 45.6014 56.127 32.8901C56.127 32.2954 56.0908 31.7012 56.0178 31.1111C55.8863 30.2087 55.0484 29.5838 54.1461 29.7153C53.2438 29.8462 52.6189 30.6846 52.7498 31.5869C52.7548 31.6212 52.7609 31.6549 52.7679 31.6891C52.8037 32.0874 52.8389 32.4822 52.8389 32.8891C52.8394 43.7852 44.0068 52.6178 33.1112 52.6188C22.2151 52.6193 13.3826 43.7862 13.382 32.8906C13.3815 21.995 22.2136 13.1619 33.1097 13.1614H33.1102C33.5181 13.1614 33.9134 13.1967 34.3107 13.2319L34.6188 13.2576C35.4779 13.2943 36.204 12.6277 36.2402 11.7686C36.2407 11.7606 36.2407 11.753 36.2412 11.7455Z" fill="#E7B51E"/>
<path id="Vector_4" d="M42.9746 14.8055V20.7009L31.9481 31.7275C31.295 32.3584 31.2768 33.3992 31.9078 34.0523C32.5387 34.7054 33.5795 34.7235 34.2326 34.0926C34.2462 34.0795 34.2598 34.0659 34.2729 34.0523L45.2994 23.0258H51.1949C51.6309 23.0258 52.0489 22.8526 52.3575 22.5439L62.2214 12.6796C62.8634 12.0375 62.8634 10.9967 62.2214 10.3547C61.9132 10.0465 61.4953 9.87333 61.0592 9.87333H56.127V4.94116C56.127 4.03328 55.3909 3.2971 54.4825 3.29761C54.0469 3.29761 53.629 3.47083 53.3208 3.77899L43.4565 13.6433C43.1478 13.9515 42.9746 14.3694 42.9746 14.8055ZM46.2627 15.4863L52.8389 8.91006V11.5174C52.8389 12.4253 53.5751 13.1614 54.483 13.1614H57.0903L50.5141 19.7377H46.2627V15.4863Z" fill="#E7B51E"/>
</g>
</svg>
