<svg width="86" height="86" viewBox="0 0 86 86" fill="none" xmlns="http://www.w3.org/2000/svg">
<g id="Group 7">
<path id="Vector" d="M84.9262 17.5353L68.13 0.738055C67.6575 0.265391 67.0165 0 66.3483 0H27.7148C23.547 0 20.1562 3.39079 20.1562 7.55859V40.7892C8.83415 42.0466 0 51.6724 0 63.3242C0 75.8276 10.1724 86 22.6758 86H78.1055C82.2733 86 85.6641 82.6092 85.6641 78.4414V19.3169C85.6641 18.6486 85.3987 18.0079 84.9262 17.5353ZM68.8672 8.60218L74.3413 14.0765L77.0617 16.7969H68.8672V8.60218ZM5.03906 63.3242C5.03906 53.5993 12.9509 45.6875 22.6758 45.6875C32.4007 45.6875 40.3125 53.5993 40.3125 63.3242C40.3125 73.0491 32.4007 80.9609 22.6758 80.9609C12.9509 80.9609 5.03906 73.0491 5.03906 63.3242ZM78.1055 80.9609H36.911C41.4399 77.2984 44.5349 71.9311 45.211 65.8438H71.3867C72.7782 65.8438 73.9062 64.7157 73.9062 63.3242C73.9062 61.9328 72.7782 60.8047 71.3867 60.8047H45.2108C44.7999 57.106 43.4969 53.6729 41.5209 50.7266H71.3867C72.7782 50.7266 73.9062 49.5985 73.9062 48.207C73.9062 46.8156 72.7782 45.6875 71.3867 45.6875H36.911C33.632 43.0359 29.6025 41.2787 25.1953 40.7892V7.55859C25.1953 6.16932 26.3256 5.03906 27.7148 5.03906H63.8281V19.3164C63.8281 20.7079 64.9562 21.8359 66.3477 21.8359H80.625V78.4414C80.625 79.8307 79.4947 80.9609 78.1055 80.9609Z" fill="white"/>
<path id="Vector_2" d="M71.3867 30.5703H34.4336C33.0421 30.5703 31.9141 31.6984 31.9141 33.0898C31.9141 34.4813 33.0421 35.6094 34.4336 35.6094H71.3867C72.7782 35.6094 73.9062 34.4813 73.9062 33.0898C73.9062 31.6984 72.7782 30.5703 71.3867 30.5703Z" fill="white"/>
<path id="Vector_3" d="M32.6877 57.0076C31.7039 56.0238 30.1085 56.0238 29.1246 57.0076L19.1484 66.9838L15.8908 63.7262C14.907 62.7424 13.3117 62.7424 12.3277 63.7262C11.3437 64.71 11.3437 66.3054 12.3277 67.2893L17.3668 72.3284C17.8587 72.8204 18.5036 73.0664 19.1484 73.0664C19.7932 73.0664 20.4381 72.8204 20.9299 72.3284L32.6877 60.5706C33.6716 59.5868 33.6716 57.9914 32.6877 57.0076Z" fill="white"/>
</g>
</svg>
