<svg width="86" height="86" viewBox="0 0 86 86" fill="none" xmlns="http://www.w3.org/2000/svg">
<path id="Vector" d="M85.7875 47.0471L72.1202 15.1765H78.4025C79.0733 15.1765 79.7166 14.91 80.1909 14.4356C80.6652 13.9613 80.9316 13.3179 80.9316 12.6471C80.9316 11.9762 80.6652 11.3329 80.1909 10.8585C79.7166 10.3841 79.0733 10.1176 78.4025 10.1176H45.5241V2.52941C45.5241 1.85857 45.2576 1.2152 44.7833 0.740848C44.309 0.266491 43.6657 0 42.9949 0C42.3242 0 41.6809 0.266491 41.2066 0.740848C40.7323 1.2152 40.4658 1.85857 40.4658 2.52941V10.1176H7.58734C6.91658 10.1176 6.27329 10.3841 5.79899 10.8585C5.32469 11.3329 5.05823 11.9762 5.05823 12.6471C5.05823 13.3179 5.32469 13.9613 5.79899 14.4356C6.27329 14.91 6.91658 15.1765 7.58734 15.1765H13.8697L0.212445 47.0471C0.182095 47.128 0.0101157 47.9627 0.0101157 48.0588H0C6.9966e-08 52.7547 1.86522 57.2583 5.18532 60.5788C8.50543 63.8993 13.0085 65.7647 17.7038 65.7647C22.3991 65.7647 26.9022 63.8993 30.2223 60.5788C33.5424 57.2583 35.4076 52.7547 35.4076 48.0588C35.4076 47.988 35.2356 47.1533 35.2053 47.0471L21.5379 15.1765H40.4658V80.9412H32.8785C32.2077 80.9412 31.5644 81.2077 31.0901 81.682C30.6158 82.1564 30.3494 82.7997 30.3494 83.4706C30.3494 84.1414 30.6158 84.7848 31.0901 85.2592C31.5644 85.7335 32.2077 86 32.8785 86H53.1114C53.7822 86 54.4254 85.7335 54.8997 85.2592C55.3741 84.7848 55.6405 84.1414 55.6405 83.4706C55.6405 82.7997 55.3741 82.1564 54.8997 81.682C54.4254 81.2077 53.7822 80.9412 53.1114 80.9412H45.5241V15.1765H64.4519L50.7947 47.0471C50.7644 47.128 50.5924 47.9627 50.5924 48.0588C50.5924 52.7547 52.4576 57.2583 55.7777 60.5788C59.0978 63.8993 63.6009 65.7647 68.2962 65.7647C72.9915 65.7647 77.4946 63.8993 80.8147 60.5788C84.1348 57.2583 86 52.7547 86 48.0588C85.9899 47.9829 85.8179 47.1482 85.7875 47.0471ZM17.7038 19.0718L29.0443 45.5294H6.36325L17.7038 19.0718ZM17.7038 60.7059C14.7886 60.7065 11.9627 59.6997 9.70446 57.856C7.44617 56.0123 5.89418 53.4449 5.31114 50.5882H30.0965C29.5134 53.4449 27.9614 56.0123 25.7031 57.856C23.4449 59.6997 20.619 60.7065 17.7038 60.7059ZM79.6266 45.5294H56.9455L68.2861 19.0718L79.6266 45.5294ZM68.2861 60.7059C65.3709 60.7065 62.545 59.6997 60.2867 57.856C58.0285 56.0123 56.4765 53.4449 55.8934 50.5882H80.6787C80.0957 53.4449 78.5437 56.0123 76.2854 57.856C74.0271 59.6997 71.2013 60.7065 68.2861 60.7059Z" fill="white"/>
</svg>
