<svg width="86" height="92" viewBox="0 0 86 92" fill="none" xmlns="http://www.w3.org/2000/svg">
<g id="Group 8">
<path id="Vector" d="M73.9184 19.8158C67.2177 12.951 58.5454 8.5858 49.1336 7.25791L51.8162 4.60104C52.879 3.54843 52.879 1.84194 51.8162 0.789324C50.7536 -0.263108 49.0303 -0.263108 47.9675 0.789324L41.0756 7.61495C40.0128 8.66738 40.0128 10.3741 41.0756 11.4267L47.9674 18.2523C48.4988 18.7786 49.1953 19.0418 49.8916 19.0418C50.5879 19.0418 51.2846 18.7786 51.8158 18.2523C52.8786 17.1999 52.8786 15.4932 51.8158 14.4406L50.2746 12.9141C57.7518 14.3633 64.6097 18.0351 70.0048 23.5623C76.8093 30.5334 80.5568 39.714 80.5568 49.4127C80.5571 69.923 63.7089 86.6094 43 86.6094C22.2911 86.6094 5.44288 69.923 5.44288 49.4129C5.44288 41.5866 7.86804 34.1001 12.4564 27.7628C16.9495 21.5569 23.1435 16.9262 30.3693 14.3714C31.7848 13.8708 32.5225 12.3287 32.0172 10.9266C31.5119 9.52467 29.9545 8.79406 28.539 9.29449C20.2653 12.22 13.1745 17.5201 8.03296 24.6215C2.77768 31.8802 0 40.4529 0 49.4131C0 60.7886 4.47278 71.4831 12.5945 79.5268C20.7161 87.57 31.5143 92 43 92C54.4857 92 65.2839 87.5702 73.4055 79.5266C81.5272 71.4829 86 60.7884 86 49.4129C86 38.3085 81.7092 27.7973 73.9184 19.8158Z" fill="white"/>
<path id="Taka" d="M43 28C31.4024 28 22 37.6254 22 49.5C22 61.3745 31.4024 71 43 71C54.5976 71 64 61.3737 64 49.5C64 37.6263 54.5976 28 43 28ZM49.8184 58.5023C47.8686 60.6741 44.1394 61.7592 42.84 61.7592C40.7597 61.7592 39.9558 61.3401 39.2782 60.8639C38.5957 60.3835 37.7082 59.2472 37.7082 57.8195V49.5193H35.2448L32.8847 46.9973H37.7082V42.0061C37.7082 40.8908 36.6204 40.2827 35.9125 40.2197C35.4761 40.1811 35.0061 40.3071 34.8346 40.4826C34.527 39.9577 34.2358 39.327 33.9626 38.5913C33.9626 38.5913 34.2062 37.7019 34.9888 37.1728C35.5311 36.8066 36.0413 36.6999 36.8362 36.6999C38.3529 36.6999 39.0494 37.4272 39.3726 37.9135C39.8459 38.6265 40.2741 39.7796 40.2741 41.4803V46.9964H41.7105L44.1222 49.5185H40.2741V56.663C40.2741 57.2232 40.4792 57.7313 40.8902 58.1865C41.3003 58.6417 41.968 58.8693 42.8917 58.8693C44.0894 58.8693 45.3551 58.1865 46.6889 56.8201C48.0572 55.4192 48.7758 53.9831 48.8439 52.5125L48.2279 52.5654C46.0384 52.5654 44.9441 51.3745 44.9441 48.9927C44.9441 48.1873 45.2009 47.4693 45.7136 46.8385C46.2271 46.2078 47.0819 45.8929 48.2795 45.8929C49.5453 45.8929 50.6059 46.453 51.4607 47.5742C52.3499 48.6946 52.7945 50.061 52.7945 51.6718C52.7945 54.0536 51.8028 56.3296 49.8184 58.5014V58.5023Z" fill="white"/>
</g>
</svg>
