<svg width="79" height="86" viewBox="0 0 79 86" fill="none" xmlns="http://www.w3.org/2000/svg">
<g id="Group 6">
<path id="Vector" d="M35.9167 62.7084H10.8334C10.3582 62.7084 9.90249 62.8971 9.56648 63.2331C9.23048 63.5691 9.04172 64.0249 9.04172 64.5C9.04172 64.9752 9.23048 65.4309 9.56648 65.7669C9.90249 66.1029 10.3582 66.2917 10.8334 66.2917H35.9167C36.3919 66.2917 36.8476 66.1029 37.1836 65.7669C37.5196 65.4309 37.7084 64.9752 37.7084 64.5C37.7084 64.0249 37.5196 63.5691 37.1836 63.2331C36.8476 62.8971 36.3919 62.7084 35.9167 62.7084Z" fill="white"/>
<path id="Vector_2" d="M35.9167 71.6666H10.8334C10.3582 71.6666 9.90249 71.8554 9.56648 72.1914C9.23048 72.5274 9.04172 72.9831 9.04172 73.4583C9.04172 73.9335 9.23048 74.3892 9.56648 74.7252C9.90249 75.0612 10.3582 75.25 10.8334 75.25H35.9167C36.3919 75.25 36.8476 75.0612 37.1836 74.7252C37.5196 74.3892 37.7084 73.9335 37.7084 73.4583C37.7084 72.9831 37.5196 72.5274 37.1836 72.1914C36.8476 71.8554 36.3919 71.6666 35.9167 71.6666Z" fill="white"/>
<path id="Vector_3" d="M35.9167 53.75H10.8334C10.3582 53.75 9.90249 53.9388 9.56648 54.2748C9.23048 54.6108 9.04172 55.0665 9.04172 55.5417C9.04172 56.0168 9.23048 56.4726 9.56648 56.8086C9.90249 57.1446 10.3582 57.3333 10.8334 57.3333H35.9167C36.3919 57.3333 36.8476 57.1446 37.1836 56.8086C37.5196 56.4726 37.7084 56.0168 37.7084 55.5417C37.7084 55.0665 37.5196 54.6108 37.1836 54.2748C36.8476 53.9388 36.3919 53.75 35.9167 53.75Z" fill="white"/>
<path id="Vector_4" d="M10.8334 48.375H25.1667C25.6419 48.375 26.0976 48.1862 26.4336 47.8502C26.7696 47.5142 26.9584 47.0585 26.9584 46.5833C26.9584 46.1081 26.7696 45.6524 26.4336 45.3164C26.0976 44.9804 25.6419 44.7916 25.1667 44.7916H10.8334C10.3582 44.7916 9.90249 44.9804 9.56648 45.3164C9.23048 45.6524 9.04172 46.1081 9.04172 46.5833C9.04172 47.0585 9.23048 47.5142 9.56648 47.8502C9.90249 48.1862 10.3582 48.375 10.8334 48.375Z" fill="white"/>
<path id="Vector_5" d="M78.9167 60.9167C78.9168 56.475 77.267 52.1917 74.2875 48.8977C71.3079 45.6036 67.2111 43.5337 62.7917 43.0896V17.9167H75.3334C75.8086 17.9167 76.2643 17.7279 76.6003 17.3919C76.9363 17.0559 77.125 16.6002 77.125 16.125V8.95833C77.125 6.58244 76.1812 4.30385 74.5012 2.62384C72.8212 0.943822 70.5426 0 68.1667 0L9.04171 0C6.66581 0 4.38722 0.943822 2.70721 2.62384C1.0272 4.30385 0.083374 6.58244 0.083374 8.95833V84.2083C0.083374 84.6835 0.272138 85.1392 0.608141 85.4752C0.944144 85.8112 1.39986 86 1.87504 86H61C61.4752 86 61.9309 85.8112 62.2669 85.4752C62.6029 85.1392 62.7917 84.6835 62.7917 84.2083V78.8333C67.2265 78.3877 71.336 76.305 74.3176 72.9921C77.2993 69.6791 78.939 65.3737 78.9167 60.9167ZM73.5417 8.95833V14.3333H62.7917V8.95833C62.7917 7.53279 63.358 6.16564 64.366 5.15763C65.374 4.14963 66.7412 3.58333 68.1667 3.58333C69.5922 3.58333 70.9594 4.14963 71.9674 5.15763C72.9754 6.16564 73.5417 7.53279 73.5417 8.95833ZM3.66671 82.4167V8.95833C3.66671 7.53279 4.233 6.16564 5.24101 5.15763C6.24902 4.14963 7.61617 3.58333 9.04171 3.58333H61C58.5455 6.82625 59.2084 5.375 59.2084 43.0896C54.6871 43.4099 50.4552 45.4319 47.3655 48.7483C44.2758 52.0647 42.5578 56.4288 42.5578 60.9615C42.5578 65.4941 44.2758 69.8583 47.3655 73.1746C50.4552 76.491 54.6871 78.513 59.2084 78.8333V82.4167H3.66671ZM61 75.25C58.1652 75.25 55.394 74.4094 53.0369 72.8344C50.6798 71.2594 48.8426 69.0209 47.7578 66.4018C46.6729 63.7827 46.3891 60.9008 46.9421 58.1204C47.4952 55.34 48.8603 52.786 50.8648 50.7815C52.8694 48.7769 55.4234 47.4118 58.2037 46.8587C60.9841 46.3057 63.8661 46.5895 66.4852 47.6744C69.1042 48.7592 71.3428 50.5964 72.9178 52.9535C74.4927 55.3106 75.3334 58.0818 75.3334 60.9167C75.3334 64.7181 73.8233 68.3638 71.1352 71.0519C68.4472 73.7399 64.8015 75.25 61 75.25Z" fill="white"/>
<path id="Vector_6" d="M43.0834 32.25C43.0834 32.7252 43.2721 33.1809 43.6081 33.5169C43.9441 33.8529 44.3999 34.0417 44.875 34.0417C45.3502 34.0417 45.8059 33.8529 46.1419 33.5169C46.4779 33.1809 46.6667 32.7252 46.6667 32.25V19.7083H50.25C50.7252 19.7083 51.1809 19.5196 51.5169 19.1836C51.8529 18.8476 52.0417 18.3918 52.0417 17.9167C52.0417 17.4415 51.8529 16.9858 51.5169 16.6498C51.1809 16.3138 50.7252 16.125 50.25 16.125H39.5C39.0249 16.125 38.5691 16.3138 38.2331 16.6498C37.8971 16.9858 37.7084 17.4415 37.7084 17.9167C37.7084 18.3918 37.8971 18.8476 38.2331 19.1836C38.5691 19.5196 39.0249 19.7083 39.5 19.7083H43.0834V32.25Z" fill="white"/>
<path id="Vector_7" d="M34.0175 17.2895C33.892 16.9436 33.663 16.6448 33.3617 16.4336C33.0604 16.2224 32.7013 16.1091 32.3334 16.1091C31.9654 16.1091 31.6064 16.2224 31.3051 16.4336C31.0037 16.6448 30.7748 16.9436 30.6492 17.2895L25.2742 31.6229C25.1079 32.0695 25.1258 32.564 25.3241 32.9974C25.5223 33.4309 25.8846 33.7678 26.3313 33.9341C26.778 34.1004 27.2724 34.0825 27.7058 33.8842C28.1393 33.686 28.4762 33.3237 28.6425 32.877L29.5384 30.4583H35.1284L36.0242 32.877C36.1905 33.3237 36.5275 33.686 36.9609 33.8842C37.3944 34.0825 37.8888 34.1004 38.3355 33.9341C38.7821 33.7678 39.1444 33.4309 39.3427 32.9974C39.5409 32.564 39.5589 32.0695 39.3925 31.6229L34.0175 17.2895ZM30.8821 26.8749L32.3334 23.0229L33.7846 26.8749H30.8821Z" fill="white"/>
<path id="Vector_8" d="M16.3159 32.877C16.4414 33.2229 16.6704 33.5218 16.9717 33.733C17.2731 33.9441 17.6321 34.0574 18.0001 34.0574C18.368 34.0574 18.7271 33.9441 19.0284 33.733C19.3297 33.5218 19.5587 33.2229 19.6842 32.877L25.0592 18.5437C25.2255 18.097 25.2076 17.6026 25.0094 17.1692C24.8111 16.7357 24.4488 16.3988 24.0021 16.2325C23.5555 16.0662 23.061 16.0841 22.6276 16.2823C22.1941 16.4806 21.8572 16.8429 21.6909 17.2895L18.0001 27.1437L14.3092 17.2895C14.1429 16.8429 13.806 16.4806 13.3725 16.2823C12.9391 16.0841 12.4446 16.0662 11.998 16.2325C11.5513 16.3988 11.189 16.7357 10.9908 17.1692C10.7925 17.6026 10.7746 18.097 10.9409 18.5437L16.3159 32.877Z" fill="white"/>
<path id="Vector_9" d="M55.6251 59.125C57.6041 59.125 59.2084 57.5207 59.2084 55.5417C59.2084 53.5627 57.6041 51.9584 55.6251 51.9584C53.646 51.9584 52.0417 53.5627 52.0417 55.5417C52.0417 57.5207 53.646 59.125 55.6251 59.125Z" fill="white"/>
<path id="Vector_10" d="M66.375 69.875C68.354 69.875 69.9584 68.2707 69.9584 66.2917C69.9584 64.3127 68.354 62.7084 66.375 62.7084C64.396 62.7084 62.7917 64.3127 62.7917 66.2917C62.7917 68.2707 64.396 69.875 66.375 69.875Z" fill="white"/>
<path id="Vector_11" d="M65.3359 52.6391L53.8692 66.9724C53.661 67.236 53.531 67.5527 53.4941 67.8866C53.4572 68.2204 53.5149 68.5579 53.6606 68.8605C53.8064 69.1632 54.0342 69.4187 54.3182 69.5981C54.6022 69.7775 54.9308 69.8734 55.2667 69.8749C56.503 69.8749 55.9117 70.1616 68.1309 54.8787C68.4105 54.5065 68.5342 54.0401 68.476 53.5783C68.4177 53.1165 68.182 52.6954 67.8187 52.4044C67.4555 52.1133 66.9932 51.975 66.5298 52.0188C66.0663 52.0626 65.6382 52.2851 65.3359 52.6391Z" fill="white"/>
</g>
</svg>
