<svg width="66" height="66" viewBox="0 0 66 66" fill="none" xmlns="http://www.w3.org/2000/svg">
<path id="Vector" d="M23.9867 4.30525V1.02629C24.0126 -0.342097 26.0562 -0.342097 26.0691 1.02629V4.30525C26.0562 5.67364 24.0126 5.67364 23.9867 4.30525ZM4.31359 23.9403H1.02828C-0.342759 23.9661 -0.342759 26.0058 1.02828 26.0187H4.31359C4.89564 26.0187 5.36127 25.554 5.36127 24.9731C5.36127 24.405 4.89564 23.9403 4.31359 23.9403ZM40.4133 11.0955L42.7285 8.78478C43.6857 7.80368 42.237 6.35783 41.254 7.31312L38.9388 9.62389C37.9816 10.605 39.4303 12.0508 40.4133 11.0955ZM9.64253 11.0955C10.6255 12.0508 12.0742 10.605 11.117 9.62389L8.8018 7.31312C7.81879 6.35783 6.37015 7.80368 7.32729 8.78478L9.64253 11.0955ZM65.9456 8.84933L56.7752 38.4762C56.62 38.9926 56.0897 39.2895 55.5723 39.1862L49.1698 37.9211L42.0947 44.621C41.2928 47.5256 41.8619 49.7202 43.8667 51.3855C44.6687 52.1471 45.5741 53.0121 45.5094 54.4192C45.4577 55.6068 44.8109 56.3427 44.3324 56.8719C42.8579 58.2145 44.4746 59.1569 45.8328 60.0735C46.9192 60.7835 48.0445 61.5193 47.7988 62.7199C47.5271 64.1141 46.0138 64.1657 43.7115 64.2561C41.7455 64.3335 39.0552 64.4239 35.7052 65.1726C33.3253 65.7277 31.01 66.399 28.5396 65.7019C27.1944 65.3534 25.0732 64.5917 24.2842 63.1717H22.6803C20.6496 63.1717 18.994 61.5193 18.994 59.4925V57.8918H18.1274C14.8551 57.9305 13.1995 53.7866 15.5665 51.5791C13.7298 49.9396 14.2601 46.5574 16.5883 45.615C16.5107 42.7104 15.256 39.9608 12.9925 37.8565C1.80434 27.4775 8.7242 8.53951 23.8962 7.5584C31.8896 7.05494 39.1716 12.0121 41.6808 19.4737C48.7688 15.8074 57.409 11.3021 64.4582 7.63585C65.2601 7.18403 66.2431 8.01022 65.9456 8.84933ZM18.6836 45.2536H31.3851C31.5403 42.2199 32.7174 39.3798 34.6834 37.2498C34.4117 36.8883 33.0019 35.0294 32.7562 34.7067L17.9464 31.8021C25.0473 28.1229 32.7303 24.121 39.8312 20.429C34.3471 4.05998 10.7549 7.11948 9.55199 24.3534C9.35798 28.8717 11.13 33.235 14.4282 36.3203C17.0151 38.7473 18.5155 41.9101 18.6836 45.2536ZM16.5236 48.9327C16.5236 49.8106 17.2479 50.5335 18.1274 50.5335H31.9154C34.0367 50.5077 34.0108 47.3836 31.9154 47.3449H18.1274C17.2738 47.3191 16.5107 48.0807 16.5236 48.9327ZM31.9154 55.8134C34.0237 55.7617 34.0237 52.6764 31.9154 52.6248H18.1274C16.0191 52.6893 16.0321 55.7617 18.1404 55.8134C18.1274 55.8134 31.9154 55.8134 31.9154 55.8134ZM27.3625 61.0933C28.2421 61.0933 28.9664 60.3704 28.9664 59.4925V57.8918H21.0894V59.4925C21.0894 60.3704 21.8008 61.0933 22.6933 61.0933H27.3625ZM40.0252 44.3112L35.9639 38.9538C34.4247 40.7482 33.5322 43.1106 33.4546 45.615C35.7181 46.5574 36.3519 49.9138 34.4764 51.592C36.8434 53.7995 35.1878 57.9563 31.9154 57.9047H31.0488V59.5054C31.0488 61.4806 29.4838 63.0813 27.5178 63.1717C29.9623 64.411 32.6527 63.843 35.2525 63.1588C39.6889 62.2035 42.0689 62.3068 45.1214 62.126C42.5733 60.6544 40.1417 58.292 42.7673 55.5165C43.7245 54.4321 43.6727 54.0577 42.431 52.9088C40.0382 50.9337 39.0681 47.758 40.0252 44.3112ZM49.6484 24.1081L49.3897 24.2889L34.8515 34.0225L35.1231 34.3839L37.4772 37.4951L40.5944 41.6131L41.8102 35.4425C43.8538 32.0603 47.4754 27.3484 49.6484 24.1081ZM46.6605 37.4434C46.4407 37.4047 43.7633 36.8754 43.6469 36.8496L42.8191 41.0839L46.6605 37.4434ZM63.2165 10.6179C58.7153 12.9545 51.3169 16.8015 46.7252 19.1897C39.3785 23.0108 31.5533 27.0644 24.1936 30.8984L33.1313 32.6541L53.1406 19.2671C53.4252 19.0993 53.7874 19.0477 54.0978 19.1768C54.7186 19.3833 54.9773 20.1966 54.5893 20.7259C51.2522 25.4507 47.9281 30.1884 44.604 34.9132L44.798 34.9519L55.0679 36.9658L63.2165 10.6179ZM9.64253 38.8635L7.32729 41.1742C6.66764 41.7939 7.17208 42.9815 8.06455 42.9557C8.33617 42.9557 8.59485 42.8524 8.8018 42.6459L11.117 40.3351C11.5309 39.922 11.5309 39.2636 11.117 38.8635C10.7161 38.4633 10.0564 38.4633 9.64253 38.8635Z" fill="#E7B51E"/>
</svg>
